<svg xmlns="http://www.w3.org/2000/svg" viewBox="0 0 2000 2000" width="64" height="64">
  <rect width="2000" height="2000" fill="#0a0a0a"/>
  <g transform="translate(200,200) scale(0.8)">
    <path fill="#ffffff" fill-opacity="0.129" d="M 1533.87,562.4 c 1.56,-1 1.01,2.39 1.15,3.11 c -0.02,288 -0.01,576 0,864 c -0.07,0.72 0.17,2.41 -0.91,2.52 c -0.13,-289.67 -0.25,-579.33 -0.36,-868.99 c 0.04,-0.21 0.08,-0.42 0.12,-0.64 Z M 465.8,567.88 c 0.22,289.67 0.37,579.36 0.46,869.04 c -0.04,0.23 -0.08,0.45 -0.13,0.68 c -1.59,0.78 -1,-2.33 -1.15,-3.1 c 0.02,-288.36 0.01,-576.71 -0.01,-865.07 c -0.13,-0.78 0.15,-1.3 0.83,-1.55 Z"/>
    <path fill="#ffffff" fill-opacity="0.275" d="M 1471,562 c 0.05,0.36 0.11,0.72 0.16,1.08 c -0.14,245.81 -0.18,491.62 -0.12,737.44 c -0.06,2.68 -0.82,2.91 -2.28,0.69 c 0.86,-0.22 1.29,-0.77 1.28,-1.68 c -0.04,-244.67 -0.05,-489.35 -0.04,-734.03 c 0.12,-0.87 -0.39,-3.4 1,-3.5 Z M 493.87,568.1 c -9.36,-0.02 -18.72,-0.09 -28.07,-0.22 c 0.1,-0.38 0.34,-0.62 0.72,-0.74 c 8.68,-0.16 17.37,-0.21 26.07,-0.16 c 0.68,0.14 1.79,0.13 1.28,1.12 Z M 531.26,698.77 c -0.87,0.22 -1.31,0.78 -1.3,1.7 c 0.04,245.01 0.05,490.03 0.05,735.04 c 0.04,1.08 -0.29,2.02 -1,2.82 c -0.09,-0.43 -0.17,-0.86 -0.26,-1.28 c 0.23,-245.85 0.3,-491.71 0.21,-737.57 c 0.05,-2.67 0.81,-2.9 2.3,-0.71 Z M 1506.13,1431.9 c 9.33,0.05 18.65,0.09 27.98,0.13 c -0.26,0.7 -0.77,1.03 -1.56,0.98 c -8.02,0 -16.04,0.01 -24.06,0.02 c -0.61,-0.01 -2.86,0.13 -2.36,-1.13 Z"/>
    <path fill="#ffffff" fill-opacity="0.365" d="M 1244.96,958.26 c -1.14,-0.15 -0.85,-1.99 -0.96,-2.76 c -0.01,-85.01 0,-170.01 0.04,-255.02 c 0.16,-0.99 -0.12,-1.79 -0.83,-2.41 c 0.36,-0.91 0.9,-1.06 1.62,-0.44 c 0.18,0.6 0.24,1.22 0.2,1.85 c 0,86.27 -0.02,172.53 -0.07,258.78 Z M 755.03,1041.66 c 1.22,0.12 0.86,2.05 0.97,2.85 c 0.01,85 0,170.01 -0.04,255.02 c -0.1,0.89 0.13,1.68 0.67,2.37 c -0.04,0.61 -0.37,0.91 -0.99,0.9 c -0.58,-0.63 -0.81,-1.39 -0.67,-2.28 c 0,-86.29 0.02,-172.58 0.06,-258.86 Z"/>
    <path fill="#ffffff" fill-opacity="0.651" d="M 1471,562 c 20.17,-0.01 40.34,-0.01 60.52,-0.02 c 0.81,0 1.59,0.14 2.35,0.42 c -0.04,0.22 -0.08,0.43 -0.12,0.64 c -20.86,-0.07 -41.73,-0.06 -62.59,0.04 c -0.05,-0.36 -0.11,-0.72 -0.16,-1.08 Z M 466.26,1436.92 c 20.83,0.07 41.66,0.11 62.49,0.13 c 0.09,0.42 0.17,0.85 0.26,1.28 c -0.82,-0.24 -1.65,-0.35 -2.5,-0.34 c -19.34,0.02 -38.68,0.02 -58.03,0.03 c -0.81,0 -1.59,-0.14 -2.35,-0.42 c 0.05,-0.23 0.09,-0.45 0.13,-0.68 Z"/>
    <path fill="#ffffff" fill-opacity="0.282" d="M 1308.19,567.86 c -9.35,0.16 -18.71,0.24 -28.08,0.22 c -0.5,-0.96 0.72,-0.91 1.31,-1.07 c 8.7,-0.06 17.41,-0.02 26.1,0.14 c 0.39,0.1 0.61,0.33 0.67,0.71 Z M 691.85,1432.12 c 9.34,-0.14 18.69,-0.21 28.04,-0.2 c 0.42,1.24 -1.76,1.08 -2.38,1.1 c -8.02,-0.02 -16.05,-0.02 -24.07,0 c -0.81,0.12 -1.34,-0.18 -1.59,-0.9"/>
    <path fill="#ffffff" stroke="#ffffff" stroke-width="0.5" d="M 1471.16,563.08 c 20.86,-0.1 41.73,-0.11 62.59,-0.04 c 0.11,289.66 0.23,579.32 0.36,868.99 c -9.33,-0.04 -18.65,-0.08 -27.98,-0.13 c -46.71,-46.63 -93.3,-93.38 -139.78,-140.26 c -0.3,-0.36 -0.62,-0.7 -0.96,-1.02 c -0.35,-0.37 -0.75,-0.66 -1.2,-0.9 c -0.2,-0.42 -0.48,-0.78 -0.82,-1.09 c -0.31,-0.34 -0.67,-0.62 -1.08,-0.83 c -0.24,-0.44 -0.54,-0.84 -0.91,-1.19 c -0.34,-0.35 -0.74,-0.61 -1.21,-0.77 c -0.17,-0.47 -0.44,-0.87 -0.8,-1.21 c -0.34,-0.37 -0.74,-0.68 -1.18,-0.92 c -0.2,-0.41 -0.47,-0.78 -0.8,-1.09 c -0.33,-0.34 -0.7,-0.62 -1.12,-0.83 c -0.23,-0.44 -0.53,-0.82 -0.9,-1.16 c -0.33,-0.36 -0.73,-0.64 -1.17,-0.85 c -0.2,-0.44 -0.47,-0.83 -0.81,-1.17 c -0.32,-0.33 -0.67,-0.64 -1.05,-0.91 c -0.29,-0.39 -0.61,-0.75 -0.97,-1.07 c -0.34,-0.38 -0.74,-0.69 -1.18,-0.95 c -0.21,-0.4 -0.47,-0.76 -0.8,-1.06 c -0.33,-0.35 -0.69,-0.64 -1.1,-0.88 c -0.2,-0.34 -0.45,-0.66 -0.72,-0.95 c -54.75,-55.03 -109.5,-110.08 -164.23,-165.14 c -0.3,-0.36 -0.62,-0.7 -0.96,-1.03 c -0.32,-0.34 -0.65,-0.68 -1,-1 c -0.35,-0.36 -0.74,-0.68 -1.16,-0.95 c -0.26,-0.41 -0.61,-0.71 -1.05,-0.91 c -0.18,-0.43 -0.45,-0.81 -0.79,-1.14 c -0.32,-0.34 -0.66,-0.68 -1,-1 c -0.34,-0.36 -0.73,-0.65 -1.17,-0.89 c -0.23,-0.43 -0.56,-0.77 -0.99,-1.02 c -0.22,-0.4 -0.5,-0.77 -0.84,-1.09 c -0.32,-0.34 -0.66,-0.68 -1,-1 c -0.31,-0.33 -0.66,-0.62 -1.04,-0.88 c -0.29,-0.42 -0.67,-0.76 -1.12,-1 c -0.22,-0.42 -0.5,-0.79 -0.84,-1.12 c -0.32,-0.34 -0.66,-0.68 -1,-1 c -0.32,-0.33 -0.66,-0.63 -1.04,-0.9 c -0.31,-0.43 -0.71,-0.78 -1.17,-1.04 c -0.2,-0.4 -0.46,-0.75 -0.79,-1.05 c -0.32,-0.36 -0.66,-0.69 -1.02,-1.01 c -0.26,-0.28 -0.52,-0.56 -0.78,-0.83 c -16.57,-16.65 -33.13,-33.31 -49.68,-49.98 c -0.9,-1.08 -1.94,-1.27 -3.12,-0.56 c -10.07,10.22 -20.19,20.41 -30.35,30.55 c -0.24,0.26 -0.45,0.56 -0.62,0.88 c -0.44,0.26 -0.84,0.57 -1.2,0.93 c -0.34,0.32 -0.68,0.66 -1,1 c -0.33,0.33 -0.63,0.68 -0.89,1.07 c -0.41,0.29 -0.72,0.65 -0.95,1.1 c -0.43,0.21 -0.82,0.49 -1.16,0.83 c -0.34,0.32 -0.68,0.66 -1,1 c -0.35,0.36 -0.62,0.76 -0.8,1.23 c -0.43,0.15 -0.76,0.43 -0.99,0.83 c -0.44,0.26 -0.84,0.58 -1.21,0.94 c -0.34,0.32 -0.68,0.66 -1,1.01 c -0.32,0.31 -0.6,0.66 -0.84,1.04 c -0.41,0.28 -0.76,0.62 -1.03,1.04 c -0.41,0.26 -0.79,0.57 -1.13,0.91 c -0.34,0.32 -0.68,0.66 -1,1 c -0.33,0.33 -0.62,0.69 -0.85,1.09 c -0.41,0.25 -0.73,0.6 -0.96,1.02 c -0.44,0.24 -0.84,0.54 -1.19,0.9 c -0.34,0.32 -0.65,0.67 -0.95,1.04 c -54.71,55.07 -109.46,110.11 -164.23,165.13 c -0.27,0.27 -0.53,0.55 -0.79,0.83 c -0.35,0.32 -0.69,0.66 -1.02,1 c -0.35,0.32 -0.68,0.65 -1.01,0.99 c -0.34,0.33 -0.67,0.66 -0.99,1.01 c -0.34,0.33 -0.67,0.66 -0.99,1.01 c -0.35,0.32 -0.68,0.65 -1.01,0.99 c -0.35,0.32 -0.68,0.65 -1.01,0.99 c -0.34,0.33 -0.67,0.66 -0.99,1.01 c -0.34,0.33 -0.67,0.66 -0.99,1.01 c -0.35,0.32 -0.68,0.65 -1.01,0.99 c -0.35,0.32 -0.68,0.65 -1.01,0.99 c -0.34,0.33 -0.67,0.66 -0.99,1.01 c -0.34,0.33 -0.67,0.66 -0.99,1.01 c -0.35,0.32 -0.68,0.65 -1.01,0.99 c -0.35,0.32 -0.68,0.65 -1.01,0.99 c -0.34,0.33 -0.67,0.66 -0.99,1.01 c -0.34,0.33 -0.67,0.66 -0.99,1.01 c -0.35,0.32 -0.69,0.65 -1.01,1 c -0.34,0.32 -0.66,0.66 -0.96,1.02 c -48.13,48.37 -96.23,96.77 -144.31,145.2 c -5.04,5.16 -10.19,10.18 -15.46,15.07 c -9.35,-0.01 -18.7,0.06 -28.04,0.2 c 0.23,-149.87 0.3,-299.75 0.21,-449.63 c -0.23,-1.24 0.21,-2.07 1.33,-2.51 c 0.04,0.56 0.28,1.03 0.73,1.39 c 19.87,19.78 39.71,39.61 59.52,59.46 c 0.4,0.39 0.86,0.66 1.39,0.83 c -0.04,86.28 -0.06,172.57 -0.06,258.86 c -0.14,0.89 0.09,1.65 0.67,2.28 c 0.62,0.01 0.95,-0.29 0.99,-0.9 c 97.03,-96.4 193.93,-192.91 290.72,-289.56 c 0.37,-0.3 0.69,-0.65 0.97,-1.05 c 0.38,-0.26 0.74,-0.57 1.06,-0.91 c 0.34,-0.32 0.68,-0.66 1,-1 c 0.34,-0.32 0.64,-0.68 0.91,-1.07 c 0.4,-0.28 0.72,-0.64 0.94,-1.08 c 0.43,-0.22 0.81,-0.5 1.15,-0.85 c 0.34,-0.32 0.68,-0.66 1,-1 c 0.33,-0.32 0.61,-0.67 0.83,-1.07 c 0.46,-0.28 0.82,-0.65 1.1,-1.11 c 0.4,-0.21 0.75,-0.49 1.07,-0.82 c 0.34,-0.32 0.68,-0.65 1,-1 c 0.36,-0.35 0.68,-0.75 0.93,-1.19 c 0.4,-0.21 0.72,-0.5 0.97,-0.87 c 0.4,-0.28 0.77,-0.59 1.1,-0.94 c 0.34,-0.32 0.68,-0.66 1,-1 c 0.35,-0.34 0.65,-0.73 0.88,-1.17 c 0.44,-0.23 0.76,-0.58 0.96,-1.03 c 0.44,-0.19 0.83,-0.46 1.16,-0.8 c 0.34,-0.32 0.68,-0.66 1,-1 c 0.34,-0.32 0.64,-0.68 0.9,-1.08 c 0.41,-0.27 0.71,-0.64 0.9,-1.1 c 0.45,-0.19 0.85,-0.47 1.2,-0.82 c 0.34,-0.32 0.68,-0.66 1,-1 c 0.34,-0.33 0.61,-0.7 0.81,-1.13 c 0.46,-0.22 0.82,-0.55 1.1,-0.99 c 0.4,-0.24 0.76,-0.54 1.09,-0.88 c 0.34,-0.32 0.68,-0.65 1,-1 c 0.35,-0.33 0.67,-0.68 0.96,-1.07 c 0.39,-0.3 0.73,-0.65 1,-1.07 c 0.38,-0.24 0.73,-0.53 1.04,-0.86 c 0.34,-0.32 0.68,-0.66 1,-1 c 0.35,-0.34 0.63,-0.72 0.85,-1.16 c 0.43,-0.2 0.76,-0.5 1.01,-0.9 c 0.42,-0.27 0.8,-0.58 1.14,-0.94 c 0.35,-0.33 0.68,-0.67 1,-1.02 c 0.28,-0.26 0.56,-0.52 0.83,-0.78 c 9.49,-9.46 18.96,-18.93 28.43,-28.41 c 1.19,-0.88 2.24,-0.74 3.15,0.43 c 0.27,0.26 0.54,0.52 0.81,0.78 c 0.35,0.35 0.76,0.63 1.21,0.84 c 0.19,0.44 0.5,0.78 0.91,1.02 c 0.24,0.42 0.54,0.8 0.89,1.15 c 0.32,0.34 0.66,0.68 1,1 c 0.33,0.33 0.68,0.61 1.07,0.86 c 0.27,0.41 0.62,0.72 1.06,0.93 c 0.23,0.45 0.52,0.85 0.87,1.21 c 0.32,0.34 0.66,0.68 1,1 c 0.35,0.35 0.73,0.66 1.14,0.94 c 0.24,0.38 0.56,0.69 0.93,0.94 c 0.27,0.41 0.58,0.78 0.93,1.12 c 0.32,0.34 0.66,0.68 1,1 c 0.33,0.34 0.69,0.65 1.07,0.94 c 0.3,0.38 0.65,0.71 1.05,0.98 c 0.26,0.39 0.55,0.75 0.88,1.08 c 0.32,0.34 0.66,0.68 1.01,1 c 0.32,0.33 0.69,0.6 1.1,0.81 c 0.26,0.46 0.63,0.79 1.1,1 c 0.19,0.45 0.45,0.84 0.79,1.18 c 0.32,0.35 0.66,0.69 1,1.01 c 0.34,0.34 0.71,0.64 1.12,0.89 c 0.25,0.41 0.58,0.74 0.97,1 c 0.27,0.4 0.57,0.77 0.91,1.11 c 0.32,0.34 0.66,0.68 1,1 c 0.37,0.36 0.77,0.68 1.21,0.95 c 0.22,0.38 0.5,0.71 0.84,0.99 c 99.4,99.06 198.78,198.15 298.13,297.26 c 0.27,0.26 0.55,0.52 0.83,0.77 c 0.32,0.35 0.66,0.69 1.01,1.01 c 0.32,0.35 0.65,0.68 0.99,1.01 c 0.32,0.35 0.65,0.68 0.99,1.01 c 0.33,0.34 0.66,0.67 1.01,0.99 c 0.33,0.34 0.66,0.67 1.01,0.99 c 0.32,0.35 0.65,0.68 0.99,1.01 c 0.32,0.35 0.65,0.68 0.99,1.01 c 0.33,0.34 0.66,0.67 1.01,0.99 c 0.33,0.34 0.66,0.67 1.01,0.99 c 0.32,0.35 0.65,0.68 0.99,1.01 c 0.32,0.35 0.65,0.68 0.99,1.01 c 0.33,0.34 0.66,0.67 1.01,0.99 c 0.33,0.34 0.66,0.67 1.01,0.99 c 0.32,0.35 0.65,0.68 0.99,1.01 c 0.32,0.35 0.65,0.68 0.99,1.01 c 0.33,0.34 0.66,0.67 1.01,0.99 c 0.33,0.34 0.66,0.67 1.01,0.99 c 0.32,0.35 0.65,0.68 0.99,1.01 c 0.32,0.35 0.65,0.68 0.99,1.01 c 0.33,0.34 0.66,0.67 1.01,0.99 c 0.33,0.34 0.66,0.67 1.01,0.99 c 0.32,0.35 0.65,0.68 0.99,1.01 c 0.32,0.35 0.65,0.68 0.99,1.01 c 0.33,0.34 0.66,0.67 1.01,0.99 c 0.33,0.34 0.66,0.67 1.01,0.99 c 0.32,0.35 0.65,0.68 0.99,1.01 c 0.32,0.35 0.65,0.68 1,1 c 0.32,0.35 0.71,0.63 1.14,0.83 c 1.46,2.22 2.22,1.99 2.28,-0.69 c -0.06,-245.82 -0.02,-491.63 0.12,-737.44 Z M 465.8,567.88 c 9.35,0.13 18.71,0.2 28.07,0.22 c 46.37,46.3 92.63,92.72 138.78,139.25 c 0.32,0.38 0.68,0.7 1.08,0.97 c 0.25,0.39 0.55,0.75 0.88,1.07 c 0.32,0.34 0.67,0.64 1.05,0.92 c 0.29,0.38 0.61,0.74 0.97,1.06 c 0.34,0.36 0.73,0.63 1.19,0.81 c 0.18,0.46 0.44,0.86 0.79,1.2 c 0.35,0.37 0.75,0.68 1.18,0.95 c 0.22,0.39 0.5,0.74 0.84,1.04 c 0.32,0.35 0.7,0.62 1.14,0.8 c 0.21,0.46 0.49,0.86 0.85,1.21 c 0.34,0.36 0.74,0.65 1.2,0.86 c 0.19,0.44 0.46,0.81 0.81,1.13 c 0.3,0.34 0.64,0.63 1.02,0.88 c 0.28,0.41 0.6,0.79 0.96,1.14 c 0.34,0.35 0.72,0.67 1.14,0.93 c 0.24,0.39 0.54,0.74 0.88,1.05 c 0.34,0.36 0.73,0.66 1.17,0.89 c 0.2,0.43 0.48,0.81 0.83,1.13 c 0.26,0.28 0.52,0.55 0.79,0.82 c 54.44,54.68 108.87,109.38 163.26,164.11 c 0.29,0.37 0.63,0.69 1.02,0.95 c 0.27,0.42 0.62,0.76 1.04,1.03 c 0.24,0.4 0.54,0.76 0.88,1.08 c 0.32,0.34 0.66,0.68 1,1 c 0.32,0.34 0.67,0.63 1.06,0.89 c 0.28,0.41 0.65,0.72 1.12,0.91 c 0.19,0.46 0.47,0.86 0.82,1.2 c 0.32,0.34 0.66,0.68 1,1 c 0.33,0.34 0.71,0.62 1.15,0.82 c 0.22,0.46 0.56,0.79 1.02,0.99 c 0.2,0.45 0.48,0.85 0.83,1.19 c 0.32,0.34 0.66,0.68 1,1 c 0.35,0.36 0.75,0.63 1.21,0.82 c 0.18,0.46 0.5,0.78 0.95,0.97 c 0.2,0.46 0.48,0.86 0.84,1.21 c 0.32,0.34 0.66,0.68 1,1 c 0.31,0.33 0.66,0.6 1.06,0.81 c 0.29,0.47 0.67,0.84 1.15,1.11 c 0.2,0.41 0.47,0.77 0.81,1.08 c 0.25,0.28 0.52,0.56 0.78,0.83 c 16.9,16.99 33.79,33.98 50.68,50.98 c 0.9,1.08 1.94,1.27 3.12,0.56 c 10.07,-10.22 20.19,-20.4 30.35,-30.54 c 0.27,-0.31 0.47,-0.65 0.62,-1.03 c 0.45,-0.18 0.85,-0.45 1.19,-0.79 c 0.35,-0.32 0.69,-0.66 1.01,-1.01 c 0.33,-0.32 0.59,-0.69 0.79,-1.11 c 0.44,-0.22 0.77,-0.55 1,-0.98 c 0.45,-0.24 0.85,-0.54 1.21,-0.9 c 0.34,-0.32 0.68,-0.66 1,-1 c 0.34,-0.33 0.65,-0.69 0.93,-1.08 c 0.37,-0.27 0.68,-0.59 0.94,-0.97 c 0.4,-0.28 0.78,-0.6 1.13,-0.95 c 0.34,-0.32 0.68,-0.66 1,-1 c 0.33,-0.33 0.63,-0.7 0.87,-1.1 c 0.41,-0.26 0.72,-0.61 0.94,-1.04 c 0.44,-0.22 0.84,-0.51 1.19,-0.86 c 0.34,-0.32 0.68,-0.66 1,-1 c 0.35,-0.34 0.66,-0.72 0.94,-1.12 c 0.37,-0.25 0.68,-0.56 0.93,-0.93 c 0.41,-0.28 0.78,-0.6 1.13,-0.96 c 0.35,-0.33 0.64,-0.71 0.89,-1.13 c 0.39,-0.25 0.74,-0.57 1.03,-0.94 c 54.41,-54.71 108.84,-109.41 163.27,-164.1 c 0.26,-0.27 0.52,-0.55 0.78,-0.83 c 0.35,-0.32 0.69,-0.66 1.02,-1 c 0.35,-0.32 0.68,-0.65 1.01,-0.99 c 0.34,-0.33 0.67,-0.66 0.99,-1.01 c 0.34,-0.33 0.67,-0.66 0.99,-1.01 c 0.35,-0.32 0.68,-0.65 1.01,-0.99 c 0.35,-0.32 0.68,-0.65 1.01,-0.99 c 0.34,-0.33 0.67,-0.66 0.99,-1.01 c 0.34,-0.33 0.67,-0.66 0.99,-1.01 c 0.35,-0.32 0.68,-0.65 1.01,-0.99 c 0.35,-0.32 0.68,-0.65 1.01,-0.99 c 0.34,-0.33 0.67,-0.66 0.99,-1.01 c 0.34,-0.33 0.67,-0.66 0.99,-1.01 c 0.35,-0.32 0.68,-0.65 1.01,-0.99 c 0.35,-0.32 0.68,-0.65 1.01,-0.99 c 0.34,-0.33 0.67,-0.66 0.99,-1.01 c 0.34,-0.33 0.67,-0.66 0.99,-1.01 c 0.35,-0.32 0.68,-0.65 1.01,-0.99 c 0.36,-0.36 0.66,-0.76 0.89,-1.22 c 0.41,-0.2 0.76,-0.48 1.04,-0.84 c 47.99,-48.18 95.94,-96.4 143.85,-144.66 c 4.86,-5 9.85,-9.86 14.95,-14.58 c 9.37,0.02 18.73,-0.06 28.08,-0.22 c -0.27,149.87 -0.36,299.76 -0.26,449.65 c 0.23,1.17 -0.16,2.01 -1.16,2.52 c -0.15,-0.56 -0.44,-1.03 -0.89,-1.4 c -19.87,-19.79 -39.71,-39.61 -59.52,-59.46 c -0.41,-0.39 -0.87,-0.69 -1.4,-0.91 c 0.05,-86.25 0.07,-172.51 0.07,-258.78 c 0.04,-0.63 -0.02,-1.25 -0.2,-1.85 c -0.72,-0.62 -1.26,-0.47 -1.62,0.44 c -97.25,96.8 -194.42,193.67 -291.54,290.61 c -0.37,0.29 -0.64,0.65 -0.83,1.08 c -0.46,0.21 -0.87,0.5 -1.22,0.87 c -0.33,0.31 -0.64,0.65 -0.9,1.03 c -0.4,0.28 -0.75,0.62 -1.05,1 c -0.37,0.3 -0.72,0.61 -1.05,0.96 c -0.35,0.32 -0.68,0.66 -1,1 c -0.33,0.31 -0.6,0.67 -0.8,1.08 c -0.47,0.26 -0.81,0.64 -1.02,1.13 c -0.45,0.18 -0.84,0.44 -1.18,0.79 c -0.34,0.32 -0.68,0.66 -1,1 c -0.36,0.36 -0.66,0.76 -0.88,1.22 c -0.44,0.2 -0.76,0.52 -0.95,0.96 c -0.44,0.2 -0.83,0.47 -1.17,0.82 c -0.34,0.32 -0.68,0.66 -1,1 c -0.33,0.31 -0.63,0.66 -0.88,1.04 c -0.4,0.27 -0.71,0.63 -0.93,1.07 c -0.44,0.23 -0.84,0.53 -1.19,0.89 c -0.34,0.32 -0.68,0.66 -1,1 c -0.35,0.34 -0.62,0.74 -0.8,1.2 c -0.48,0.19 -0.84,0.52 -1.08,0.98 c -0.42,0.2 -0.79,0.48 -1.12,0.82 c -0.34,0.32 -0.68,0.66 -1,1 c -0.36,0.35 -0.65,0.74 -0.87,1.19 c -0.42,0.19 -0.73,0.5 -0.93,0.93 c -0.45,0.23 -0.85,0.52 -1.2,0.88 c -0.34,0.32 -0.68,0.66 -1,1 c -0.35,0.33 -0.67,0.69 -0.96,1.07 c -0.4,0.31 -0.72,0.69 -0.96,1.13 c -0.41,0.2 -0.77,0.47 -1.08,0.8 c -0.34,0.32 -0.68,0.66 -1,1 c -0.36,0.35 -0.64,0.76 -0.83,1.23 c -0.47,0.19 -0.84,0.5 -1.1,0.94 c -0.4,0.22 -0.75,0.5 -1.07,0.83 c -0.34,0.32 -0.68,0.66 -1,1 c -0.35,0.33 -0.63,0.71 -0.86,1.13 c -0.35,0.18 -0.68,0.41 -0.97,0.67 c -9.29,9.28 -18.58,18.55 -27.88,27.82 c -1.52,1.4 -2.58,-1.1 -3.7,-1.83 c -0.31,-0.25 -0.65,-0.44 -1.02,-0.58 c -0.2,-0.47 -0.51,-0.86 -0.92,-1.15 c -0.26,-0.39 -0.55,-0.74 -0.88,-1.07 c -0.32,-0.34 -0.66,-0.68 -1,-1 c -0.33,-0.33 -0.7,-0.62 -1.1,-0.85 c -0.25,-0.42 -0.58,-0.76 -0.99,-1.02 c -0.26,-0.41 -0.57,-0.79 -0.91,-1.13 c -0.32,-0.34 -0.66,-0.68 -1,-1 c -0.32,-0.33 -0.68,-0.61 -1.07,-0.85 c -0.26,-0.41 -0.61,-0.71 -1.05,-0.92 c -0.23,-0.46 -0.52,-0.87 -0.88,-1.23 c -0.32,-0.34 -0.66,-0.68 -1,-1 c -0.35,-0.35 -0.73,-0.65 -1.14,-0.9 c -0.24,-0.4 -0.55,-0.72 -0.94,-0.97 c -0.27,-0.41 -0.57,-0.79 -0.92,-1.13 c -0.32,-0.34 -0.66,-0.68 -1,-1 c -0.36,-0.35 -0.76,-0.63 -1.22,-0.83 c -0.19,-0.45 -0.49,-0.81 -0.89,-1.09 c -0.26,-0.39 -0.56,-0.75 -0.89,-1.08 c -0.32,-0.34 -0.66,-0.68 -1,-1 c -0.32,-0.33 -0.67,-0.62 -1.05,-0.88 c -0.28,-0.39 -0.62,-0.69 -1.04,-0.91 c -0.25,-0.44 -0.55,-0.85 -0.91,-1.21 c -0.32,-0.34 -0.66,-0.68 -1.01,-1 c -0.35,-0.35 -0.75,-0.61 -1.22,-0.79 c -0.18,-0.45 -0.46,-0.83 -0.84,-1.14 c -99.05,-98.74 -198.08,-197.49 -297.1,-296.26 c -0.28,-0.27 -0.55,-0.53 -0.83,-0.79 c -0.32,-0.35 -0.66,-0.69 -1.01,-1.01 c -0.33,-0.34 -0.66,-0.67 -1.01,-0.99 c -0.32,-0.35 -0.65,-0.68 -0.99,-1.01 c -0.32,-0.35 -0.65,-0.68 -0.99,-1.01 c -0.33,-0.34 -0.66,-0.67 -1.01,-0.99 c -0.33,-0.34 -0.66,-0.67 -1.01,-0.99 c -0.32,-0.35 -0.65,-0.68 -0.99,-1.01 c -0.32,-0.35 -0.65,-0.68 -0.99,-1.01 c -0.33,-0.34 -0.66,-0.67 -1.01,-0.99 c -0.33,-0.34 -0.66,-0.67 -1.01,-0.99 c -0.32,-0.35 -0.65,-0.68 -0.99,-1.01 c -0.32,-0.35 -0.65,-0.68 -0.99,-1.01 c -0.33,-0.34 -0.66,-0.67 -1.01,-0.99 c -0.33,-0.34 -0.66,-0.67 -1.01,-0.99 c -0.32,-0.35 -0.65,-0.68 -0.99,-1.01 c -0.32,-0.35 -0.65,-0.68 -0.99,-1.01 c -0.33,-0.34 -0.66,-0.67 -1.01,-0.99 c -0.33,-0.34 -0.66,-0.67 -1.01,-0.99 c -0.32,-0.35 -0.65,-0.68 -0.99,-1.01 c -0.32,-0.35 -0.65,-0.68 -0.99,-1.01 c -0.33,-0.34 -0.66,-0.67 -1.01,-0.99 c -0.33,-0.34 -0.66,-0.67 -1.01,-0.99 c -0.32,-0.35 -0.65,-0.68 -0.99,-1.01 c -0.32,-0.35 -0.65,-0.68 -0.99,-1.01 c -0.33,-0.34 -0.66,-0.67 -1.01,-0.99 c -0.33,-0.34 -0.66,-0.67 -1.01,-0.99 c -0.32,-0.35 -0.65,-0.68 -0.99,-1.01 c -0.32,-0.35 -0.65,-0.68 -1,-1 c -0.32,-0.35 -0.69,-0.63 -1.12,-0.85 c -1.49,-2.19 -2.25,-1.96 -2.3,0.71 c 0.09,245.86 0.02,491.72 -0.21,737.57 c -20.83,-0.02 -41.66,-0.06 -62.49,-0.13 c -0.09,-289.68 -0.24,-579.37 -0.46,-869.04 Z"/>
  </g>
</svg>