<?xml version="1.0" encoding="UTF-8"?>
<!DOCTYPE svg PUBLIC "-//W3C//DTD SVG 1.1//EN" "http://www.w3.org/Graphics/SVG/1.1/DTD/svg11.dtd">
<svg xmlns="http://www.w3.org/2000/svg" version="1.1" width="4500px" height="4500px" viewBox="0 0 2000 2000" style="shape-rendering:geometricPrecision; text-rendering:geometricPrecision; image-rendering:optimizeQuality; fill-rule:evenodd; clip-rule:evenodd" xmlns:xlink="http://www.w3.org/1999/xlink">
<g><path fill="#ffffff" fill-opacity="0.129" d="M 1533.87,562.4 c 1.56,-1 1.01,2.39 1.15,3.11 c -0.02,288 -0.01,576 0,864 c -0.07,0.72 0.17,2.41 -0.91,2.52 c -0.13,-289.67 -0.25,-579.33 -0.36,-868.99 c 0.04,-0.21 0.08,-0.42 0.12,-0.64 Z M 465.8,567.88 c 0.22,289.67 0.37,579.36 0.46,869.04 c -0.04,0.23 -0.08,0.45 -0.13,0.68 c -1.59,0.78 -1,-2.33 -1.15,-3.1 c 0.02,-288.36 0.01,-576.71 -0.01,-865.07 c -0.13,-0.78 0.15,-1.3 0.83,-1.55 Z M 1308.19,567.86 c 0.39,0 0.62,0.19 0.7,0.59 c 0.09,149.68 0.12,299.36 0.1,449.04 c 0.16,1.36 -0.08,2.63 -0.74,3.79 c -0.76,-0.08 -1.26,-0.49 -1.48,-1.25 c 1,-0.51 1.39,-1.35 1.16,-2.52 c -0.1,-149.89 -0.01,-299.78 0.26,-449.65 Z M 632.65,707.35 c 0.8,-0.18 1.16,0.14 1.08,0.97 c -0.4,-0.27 -0.76,-0.59 -1.08,-0.97 Z M 635.66,710.31 c 0.71,0 1.03,0.35 0.97,1.06 c -0.36,-0.32 -0.68,-0.68 -0.97,-1.06 Z M 636.63,711.37 c 0.66,-0.1 1.06,0.17 1.19,0.81 c -0.46,-0.18 -0.85,-0.45 -1.19,-0.81 Z M 639.79,714.33 c 0.66,0.02 0.94,0.37 0.84,1.04 c -0.34,-0.3 -0.62,-0.65 -0.84,-1.04 Z M 640.63,715.37 c 0.66,-0.11 1.04,0.16 1.14,0.8 c -0.44,-0.18 -0.82,-0.45 -1.14,-0.8 Z M 643.82,718.24 c 0.65,0.09 0.92,0.47 0.81,1.13 c -0.35,-0.32 -0.62,-0.69 -0.81,-1.13 Z M 644.63,719.37 c 0.68,-0.09 1.02,0.2 1.02,0.88 c -0.38,-0.25 -0.72,-0.54 -1.02,-0.88 Z M 647.75,722.32 c 0.68,0.02 0.97,0.37 0.88,1.05 c -0.34,-0.31 -0.64,-0.66 -0.88,-1.05 Z M 648.63,723.37 c 0.69,-0.08 1.08,0.21 1.17,0.89 c -0.44,-0.23 -0.83,-0.53 -1.17,-0.89 Z M 1121.31,727.32 c -0.28,0.36 -0.63,0.64 -1.04,0.84 c -0.07,-0.81 0.28,-1.09 1.04,-0.84 Z M 815.7,891.27 c 0.68,0.01 1.02,0.35 1.04,1.03 c -0.42,-0.27 -0.77,-0.61 -1.04,-1.03 Z M 819.68,895.27 c 0.65,-0.03 1.02,0.28 1.12,0.91 c -0.47,-0.19 -0.84,-0.5 -1.12,-0.91 Z M 823.77,899.2 c 0.62,0.04 0.96,0.37 1.02,0.99 c -0.46,-0.2 -0.8,-0.53 -1.02,-0.99 Z M 827.83,903.2 c 0.6,0.05 0.91,0.37 0.95,0.97 c -0.45,-0.19 -0.77,-0.51 -0.95,-0.97 Z M 831.68,907.19 c 0.69,0.06 1.07,0.43 1.15,1.11 c -0.48,-0.27 -0.86,-0.64 -1.15,-1.11 Z M 938.31,911.31 c -0.29,0.37 -0.64,0.69 -1.03,0.94 c -0.08,-0.83 0.27,-1.14 1.03,-0.94 Z M 935.26,914.34 c -0.25,0.37 -0.56,0.68 -0.93,0.93 c -0.03,-0.66 0.28,-0.97 0.93,-0.93 Z M 931.2,918.25 c -0.22,0.43 -0.53,0.78 -0.94,1.04 c -0.01,-0.65 0.3,-1 0.94,-1.04 Z M 927.26,922.34 c -0.26,0.38 -0.57,0.7 -0.94,0.97 c -0.04,-0.67 0.27,-0.99 0.94,-0.97 Z M 923.18,926.29 c -0.23,0.43 -0.56,0.76 -1,0.98 c 0.03,-0.63 0.37,-0.96 1,-0.98 Z M 919.19,930.18 c -0.15,0.38 -0.35,0.72 -0.62,1.03 c -0.39,-0.73 -0.18,-1.08 0.62,-1.03 Z M 1116.81,950.22 c 0.62,0.05 0.92,0.39 0.91,1.02 c -0.41,-0.24 -0.72,-0.58 -0.91,-1.02 Z M 1120.68,954.25 c 0.65,-0.02 1.01,0.29 1.06,0.93 c -0.44,-0.21 -0.79,-0.52 -1.06,-0.93 Z M 1124.75,958.33 c 0.65,-0.02 0.96,0.29 0.93,0.94 c -0.37,-0.25 -0.69,-0.56 -0.93,-0.94 Z M 1128.68,962.33 c 0.68,-0.03 1.04,0.3 1.05,0.98 c -0.4,-0.27 -0.75,-0.6 -1.05,-0.98 Z M 1132.72,966.2 c 0.65,0.03 1.01,0.37 1.1,1 c -0.47,-0.21 -0.84,-0.54 -1.1,-1 Z M 1136.73,970.28 c 0.66,0.01 0.98,0.34 0.97,1 c -0.39,-0.26 -0.72,-0.59 -0.97,-1 Z M 1140.82,974.34 c 0.76,-0.06 1.04,0.27 0.84,0.99 c -0.34,-0.28 -0.62,-0.61 -0.84,-0.99 Z M 693.39,979.98 c -1.12,0.44 -1.56,1.27 -1.33,2.51 c 0.09,149.88 0.02,299.76 -0.21,449.63 c -0.67,-0.27 -0.95,-0.79 -0.84,-1.56 c 0.01,-149.36 0.01,-298.71 0.01,-448.06 c -0.04,-0.97 0.01,-1.94 0.15,-2.9 c 0.87,-0.97 1.61,-0.84 2.22,0.38 Z M 1080.24,979.32 c -0.25,0.4 -0.58,0.7 -1.01,0.9 c 0.04,-0.64 0.37,-0.93 1.01,-0.9 Z M 1076.34,983.24 c -0.27,0.42 -0.61,0.77 -1,1.07 c -0.03,-0.69 0.3,-1.05 1,-1.07 Z M 1072.29,987.26 c -0.28,0.44 -0.64,0.77 -1.1,0.99 c 0.06,-0.66 0.43,-0.99 1.1,-0.99 Z M 951.67,988.68 c 0.27,0.76 -0.01,1.12 -0.83,1.08 c 0.19,-0.43 0.46,-0.79 0.83,-1.08 Z M 1068.18,991.2 c -0.19,0.46 -0.49,0.83 -0.9,1.1 c -0.04,-0.64 0.26,-1.01 0.9,-1.1 Z M 948.72,991.66 c 0,0.7 -0.35,1.03 -1.05,1 c 0.3,-0.38 0.65,-0.72 1.05,-1 Z M 1064.22,995.18 c -0.2,0.45 -0.52,0.8 -0.96,1.03 c 0.01,-0.63 0.33,-0.97 0.96,-1.03 Z M 944.82,995.7 c -0.04,0.65 -0.38,1.03 -1.02,1.13 c 0.21,-0.49 0.55,-0.87 1.02,-1.13 Z M 1060.28,999.32 c -0.25,0.37 -0.57,0.66 -0.97,0.87 c 0,-0.63 0.33,-0.92 0.97,-0.87 Z M 940.74,999.84 c -0.03,0.6 -0.35,0.92 -0.95,0.96 c 0.19,-0.44 0.51,-0.76 0.95,-0.96 Z M 1056.31,1003.2 c -0.28,0.46 -0.64,0.83 -1.1,1.11 c 0.05,-0.69 0.41,-1.06 1.1,-1.11 Z M 936.74,1003.66 c 0.03,0.66 -0.28,1.01 -0.93,1.07 c 0.22,-0.44 0.53,-0.8 0.93,-1.07 Z M 1052.23,1007.23 c -0.22,0.44 -0.54,0.8 -0.94,1.08 c -0.03,-0.67 0.28,-1.03 0.94,-1.08 Z M 932.82,1007.82 c -0.09,0.62 -0.45,0.95 -1.08,0.98 c 0.24,-0.46 0.6,-0.79 1.08,-0.98 Z M 1048.32,1011.29 c -0.28,0.4 -0.6,0.75 -0.97,1.05 c -0.18,-0.82 0.14,-1.17 0.97,-1.05 Z M 928.75,1011.81 c -0.01,0.6 -0.32,0.91 -0.93,0.93 c 0.2,-0.43 0.51,-0.74 0.93,-0.93 Z M 924.66,1015.69 c 0.04,0.68 -0.28,1.06 -0.96,1.13 c 0.24,-0.44 0.56,-0.82 0.96,-1.13 Z M 920.79,1019.85 c -0.09,0.62 -0.46,0.93 -1.1,0.94 c 0.26,-0.44 0.63,-0.75 1.1,-0.94 Z M 916.76,1023.75 c 0.07,0.81 -0.25,1.03 -0.97,0.67 c 0.29,-0.26 0.62,-0.49 0.97,-0.67 Z M 862.3,1028.82 c 0.42,0.22 0.76,0.52 1.04,0.91 c -0.66,0.03 -1,-0.27 -1.04,-0.91 Z M 866.28,1032.69 c 0.4,0.28 0.7,0.64 0.89,1.09 c -0.63,-0.09 -0.93,-0.45 -0.89,-1.09 Z M 870.31,1036.74 c 0.39,0.25 0.7,0.57 0.94,0.97 c -0.65,0 -0.96,-0.33 -0.94,-0.97 Z M 874.27,1040.84 c 0.44,0.21 0.79,0.51 1.05,0.92 c -0.64,0.02 -0.99,-0.29 -1.05,-0.92 Z M 878.3,1044.74 c 0.41,0.26 0.74,0.6 0.99,1.02 c -0.66,-0.02 -0.99,-0.36 -0.99,-1.02 Z M 882.27,1048.68 c 0.41,0.29 0.72,0.68 0.92,1.15 c -0.64,-0.11 -0.95,-0.5 -0.92,-1.15 Z M 1081.43,1068.8 c 0.34,0.71 0.13,1.01 -0.62,0.88 c 0.17,-0.32 0.38,-0.62 0.62,-0.88 Z M 1077.72,1072.68 c 0.02,0.66 -0.29,1.03 -0.95,1.1 c 0.23,-0.45 0.54,-0.81 0.95,-1.1 Z M 1073.81,1076.84 c -0.06,0.59 -0.39,0.87 -0.99,0.83 c 0.23,-0.4 0.56,-0.68 0.99,-0.83 Z M 1069.77,1080.66 c -0.01,0.68 -0.36,1.03 -1.03,1.04 c 0.27,-0.42 0.62,-0.76 1.03,-1.04 Z M 1065.76,1084.7 c 0,0.65 -0.32,0.99 -0.96,1.02 c 0.23,-0.42 0.55,-0.77 0.96,-1.02 Z M 1167.17,1091.68 c 0.46,0.26 0.86,0.61 1.17,1.04 c -0.7,0 -1.09,-0.35 -1.17,-1.04 Z M 1171.22,1095.74 c 0.45,0.24 0.83,0.58 1.12,1 c -0.68,0.01 -1.05,-0.33 -1.12,-1 Z M 1175.22,1099.71 c 0.43,0.25 0.76,0.59 0.99,1.02 c -0.64,-0.03 -0.97,-0.37 -0.99,-1.02 Z M 1179.17,1103.76 c 0.44,0.2 0.79,0.5 1.05,0.91 c -0.64,0.02 -0.98,-0.28 -1.05,-0.91 Z M 1347.57,1272.79 c 0.27,0.29 0.52,0.61 0.72,0.95 c -0.82,0.07 -1.06,-0.24 -0.72,-0.95 Z M 1350.19,1275.68 c 0.44,0.26 0.84,0.57 1.18,0.95 c -0.7,0.07 -1.1,-0.25 -1.18,-0.95 Z M 1351.37,1276.63 c 0.36,0.32 0.68,0.68 0.97,1.07 c -0.71,0 -1.03,-0.36 -0.97,-1.07 Z M 1354.2,1279.78 c 0.44,0.21 0.84,0.49 1.17,0.85 c -0.67,0.09 -1.07,-0.19 -1.17,-0.85 Z M 1355.37,1280.63 c 0.37,0.34 0.67,0.72 0.9,1.16 c -0.68,-0.08 -0.98,-0.47 -0.9,-1.16 Z M 1358.19,1283.71 c 0.44,0.24 0.84,0.55 1.18,0.92 c -0.7,0.08 -1.09,-0.23 -1.18,-0.92 Z M 1359.37,1284.63 c 0.36,0.34 0.63,0.74 0.8,1.21 c -0.64,-0.15 -0.9,-0.55 -0.8,-1.21 Z M 1362.29,1287.8 c 0.41,0.21 0.77,0.49 1.08,0.83 c -0.66,0.1 -1.03,-0.17 -1.08,-0.83 Z M 1363.37,1288.63 c 0.34,0.31 0.62,0.67 0.82,1.09 c -0.65,-0.06 -0.92,-0.43 -0.82,-1.09 Z"/></g>
<g><path fill="#ffffff" fill-opacity="0.275" d="M 1471,562 c 0.05,0.36 0.11,0.72 0.16,1.08 c -0.14,245.81 -0.18,491.62 -0.12,737.44 c -0.06,2.68 -0.82,2.91 -2.28,0.69 c 0.86,-0.22 1.29,-0.77 1.28,-1.68 c -0.04,-244.67 -0.05,-489.35 -0.04,-734.03 c 0.12,-0.87 -0.39,-3.4 1,-3.5 Z M 493.87,568.1 c -9.36,-0.02 -18.72,-0.09 -28.07,-0.22 c 0.1,-0.38 0.34,-0.62 0.72,-0.74 c 8.68,-0.16 17.37,-0.21 26.07,-0.16 c 0.68,0.14 1.79,0.13 1.28,1.12 Z M 531.26,698.77 c -0.87,0.22 -1.31,0.78 -1.3,1.7 c 0.04,245.01 0.05,490.03 0.05,735.04 c 0.04,1.08 -0.29,2.02 -1,2.82 c -0.09,-0.43 -0.17,-0.86 -0.26,-1.28 c 0.23,-245.85 0.3,-491.71 0.21,-737.57 c 0.05,-2.67 0.81,-2.9 2.3,-0.71 Z M 1506.13,1431.9 c 9.33,0.05 18.65,0.09 27.98,0.13 c -0.26,0.7 -0.77,1.03 -1.56,0.98 c -8.02,0 -16.04,0.01 -24.06,0.02 c -0.61,-0.01 -2.86,0.13 -2.36,-1.13 Z"/></g>
<g><path fill="#ffffff" fill-opacity="0.365" d="M 1244.96,958.26 c -1.14,-0.15 -0.85,-1.99 -0.96,-2.76 c -0.01,-85.01 0,-170.01 0.04,-255.02 c 0.16,-0.99 -0.12,-1.79 -0.83,-2.41 c 0.36,-0.91 0.9,-1.06 1.62,-0.44 c 0.18,0.6 0.24,1.22 0.2,1.85 c 0,86.27 -0.02,172.53 -0.07,258.78 Z M 755.03,1041.66 c 1.22,0.12 0.86,2.05 0.97,2.85 c 0.01,85 0,170.01 -0.04,255.02 c -0.1,0.89 0.13,1.68 0.67,2.37 c -0.04,0.61 -0.37,0.91 -0.99,0.9 c -0.58,-0.63 -0.81,-1.39 -0.67,-2.28 c 0,-86.29 0.02,-172.58 0.06,-258.86 Z"/></g>
<g><path fill="#ffffff" fill-opacity="0.118" d="M 531.26,698.77 c 0.43,0.22 0.8,0.5 1.12,0.85 c -0.68,0.1 -1.05,-0.18 -1.12,-0.85 Z M 532.38,699.62 c 0.35,0.32 0.68,0.65 1,1 c -0.73,0.06 -1.06,-0.27 -1,-1 Z M 533.38,700.62 c 0.34,0.33 0.67,0.66 0.99,1.01 c -0.72,0.05 -1.06,-0.28 -0.99,-1.01 Z M 534.37,701.63 c 0.35,0.32 0.68,0.65 1.01,0.99 c -0.73,0.07 -1.06,-0.27 -1.01,-0.99 Z M 535.38,702.62 c 0.35,0.32 0.68,0.65 1.01,0.99 c -0.73,0.07 -1.07,-0.26 -1.01,-0.99 Z M 536.39,703.61 c 0.34,0.33 0.67,0.66 0.99,1.01 c -0.73,0.06 -1.06,-0.28 -0.99,-1.01 Z M 537.38,704.62 c 0.34,0.33 0.67,0.66 0.99,1.01 c -0.72,0.05 -1.06,-0.28 -0.99,-1.01 Z M 538.37,705.63 c 0.35,0.32 0.68,0.65 1.01,0.99 c -0.73,0.07 -1.06,-0.27 -1.01,-0.99 Z M 539.38,706.62 c 0.35,0.32 0.68,0.65 1.01,0.99 c -0.73,0.07 -1.07,-0.26 -1.01,-0.99 Z M 540.39,707.61 c 0.34,0.33 0.67,0.66 0.99,1.01 c -0.73,0.06 -1.06,-0.28 -0.99,-1.01 Z M 633.73,708.32 c 0.68,0.03 0.97,0.38 0.88,1.07 c -0.33,-0.32 -0.63,-0.68 -0.88,-1.07 Z M 541.38,708.62 c 0.34,0.33 0.67,0.66 0.99,1.01 c -0.72,0.05 -1.06,-0.28 -0.99,-1.01 Z M 634.61,709.39 c 0.7,-0.08 1.05,0.23 1.05,0.92 c -0.38,-0.28 -0.73,-0.58 -1.05,-0.92 Z M 542.37,709.63 c 0.35,0.32 0.68,0.65 1.01,0.99 c -0.73,0.07 -1.06,-0.27 -1.01,-0.99 Z M 543.38,710.62 c 0.35,0.32 0.68,0.65 1.01,0.99 c -0.73,0.07 -1.07,-0.26 -1.01,-0.99 Z M 544.39,711.61 c 0.34,0.33 0.67,0.66 0.99,1.01 c -0.73,0.06 -1.06,-0.28 -0.99,-1.01 Z M 637.82,712.18 c 0.64,0.15 0.9,0.55 0.79,1.2 c -0.35,-0.34 -0.61,-0.74 -0.79,-1.2 Z M 545.38,712.62 c 0.34,0.33 0.67,0.66 0.99,1.01 c -0.72,0.05 -1.06,-0.28 -0.99,-1.01 Z M 638.61,713.38 c 0.71,-0.07 1.1,0.25 1.18,0.95 c -0.43,-0.27 -0.83,-0.58 -1.18,-0.95 Z M 546.37,713.63 c 0.35,0.32 0.68,0.65 1.01,0.99 c -0.73,0.07 -1.06,-0.27 -1.01,-0.99 Z M 547.38,714.62 c 0.35,0.32 0.68,0.65 1.01,0.99 c -0.73,0.07 -1.07,-0.26 -1.01,-0.99 Z M 548.39,715.61 c 0.34,0.33 0.67,0.66 0.99,1.01 c -0.73,0.06 -1.06,-0.28 -0.99,-1.01 Z M 641.77,716.17 c 0.66,0.14 0.94,0.54 0.85,1.21 c -0.36,-0.35 -0.64,-0.75 -0.85,-1.21 Z M 549.38,716.62 c 0.34,0.33 0.67,0.66 0.99,1.01 c -0.72,0.05 -1.06,-0.28 -0.99,-1.01 Z M 642.62,717.38 c 0.67,-0.08 1.07,0.2 1.2,0.86 c -0.46,-0.21 -0.86,-0.5 -1.2,-0.86 Z M 550.37,717.63 c 0.35,0.32 0.68,0.65 1.01,0.99 c -0.73,0.07 -1.06,-0.27 -1.01,-0.99 Z M 551.38,718.62 c 0.35,0.32 0.68,0.65 1.01,0.99 c -0.73,0.07 -1.07,-0.26 -1.01,-0.99 Z M 552.39,719.61 c 0.34,0.33 0.67,0.66 0.99,1.01 c -0.73,0.06 -1.06,-0.28 -0.99,-1.01 Z M 645.65,720.25 c 0.71,0.05 1.03,0.43 0.96,1.14 c -0.36,-0.35 -0.68,-0.73 -0.96,-1.14 Z M 553.38,720.62 c 0.34,0.33 0.67,0.66 0.99,1.01 c -0.72,0.05 -1.06,-0.28 -0.99,-1.01 Z M 646.61,721.39 c 0.7,-0.08 1.08,0.24 1.14,0.93 c -0.42,-0.26 -0.8,-0.58 -1.14,-0.93 Z M 554.37,721.63 c 0.35,0.32 0.68,0.65 1.01,0.99 c -0.73,0.07 -1.06,-0.27 -1.01,-0.99 Z M 555.38,722.62 c 0.35,0.32 0.68,0.65 1.01,0.99 c -0.73,0.07 -1.07,-0.26 -1.01,-0.99 Z M 556.39,723.61 c 0.34,0.33 0.67,0.66 0.99,1.01 c -0.73,0.06 -1.06,-0.28 -0.99,-1.01 Z M 649.8,724.26 c 0.65,0.09 0.93,0.46 0.83,1.13 c -0.35,-0.32 -0.63,-0.7 -0.83,-1.13 Z M 557.38,724.62 c 0.34,0.33 0.67,0.66 0.99,1.01 c -0.72,0.05 -1.06,-0.28 -0.99,-1.01 Z M 650.63,725.39 c 0.84,-0.25 1.1,0.02 0.79,0.82 c -0.27,-0.27 -0.53,-0.54 -0.79,-0.82 Z M 558.37,725.63 c 0.35,0.32 0.68,0.65 1.01,0.99 c -0.73,0.07 -1.06,-0.27 -1.01,-0.99 Z M 559.38,726.62 c 0.35,0.32 0.69,0.66 1.01,1.01 c -0.73,0.06 -1.07,-0.28 -1.01,-1.01 Z M 560.39,727.63 c 0.28,0.26 0.55,0.52 0.83,0.79 c -0.75,0.25 -1.02,-0.01 -0.83,-0.79 Z M 1120.27,728.16 c -0.23,0.46 -0.53,0.86 -0.89,1.22 c -0.09,-0.7 0.21,-1.11 0.89,-1.22 Z M 1119.38,729.38 c -0.33,0.34 -0.66,0.67 -1.01,0.99 c -0.05,-0.72 0.28,-1.05 1.01,-0.99 Z M 1118.37,730.37 c -0.32,0.35 -0.65,0.68 -0.99,1.01 c -0.06,-0.73 0.27,-1.06 0.99,-1.01 Z M 1117.38,731.38 c -0.32,0.35 -0.65,0.68 -0.99,1.01 c -0.07,-0.73 0.26,-1.07 0.99,-1.01 Z M 1116.39,732.39 c -0.33,0.34 -0.66,0.67 -1.01,0.99 c -0.06,-0.73 0.28,-1.06 1.01,-0.99 Z M 1115.38,733.38 c -0.33,0.34 -0.66,0.67 -1.01,0.99 c -0.05,-0.72 0.28,-1.05 1.01,-0.99 Z M 1114.37,734.37 c -0.32,0.35 -0.65,0.68 -0.99,1.01 c -0.06,-0.73 0.27,-1.06 0.99,-1.01 Z M 1113.38,735.38 c -0.32,0.35 -0.65,0.68 -0.99,1.01 c -0.07,-0.73 0.26,-1.07 0.99,-1.01 Z M 1112.39,736.39 c -0.33,0.34 -0.66,0.67 -1.01,0.99 c -0.06,-0.73 0.28,-1.06 1.01,-0.99 Z M 1111.38,737.38 c -0.33,0.34 -0.66,0.67 -1.01,0.99 c -0.05,-0.72 0.28,-1.05 1.01,-0.99 Z M 1110.37,738.37 c -0.32,0.35 -0.65,0.68 -0.99,1.01 c -0.06,-0.73 0.27,-1.06 0.99,-1.01 Z M 1109.38,739.38 c -0.32,0.35 -0.65,0.68 -0.99,1.01 c -0.07,-0.73 0.26,-1.07 0.99,-1.01 Z M 1108.39,740.39 c -0.33,0.34 -0.66,0.67 -1.01,0.99 c -0.06,-0.73 0.28,-1.06 1.01,-0.99 Z M 1107.38,741.38 c -0.33,0.34 -0.66,0.67 -1.01,0.99 c -0.05,-0.72 0.28,-1.05 1.01,-0.99 Z M 1106.37,742.37 c -0.32,0.35 -0.65,0.68 -0.99,1.01 c -0.06,-0.73 0.27,-1.06 0.99,-1.01 Z M 1105.38,743.38 c -0.32,0.35 -0.65,0.68 -0.99,1.01 c -0.07,-0.73 0.26,-1.07 0.99,-1.01 Z M 1104.39,744.39 c -0.33,0.34 -0.66,0.67 -1.01,0.99 c -0.06,-0.73 0.28,-1.06 1.01,-0.99 Z M 1103.38,745.38 c -0.33,0.34 -0.67,0.68 -1.02,1 c -0.05,-0.73 0.29,-1.06 1.02,-1 Z M 1102.36,746.38 c -0.26,0.28 -0.52,0.56 -0.78,0.83 c -0.31,-0.79 -0.06,-1.07 0.78,-0.83 Z M 816.74,892.3 c 0.68,0.03 0.98,0.38 0.88,1.08 c -0.34,-0.32 -0.64,-0.68 -0.88,-1.08 Z M 817.62,893.38 c 0.72,-0.05 1.05,0.28 1,1 c -0.34,-0.32 -0.68,-0.66 -1,-1 Z M 818.62,894.38 c 0.7,-0.1 1.05,0.2 1.06,0.89 c -0.39,-0.26 -0.74,-0.55 -1.06,-0.89 Z M 820.8,896.18 c 0.65,0.12 0.93,0.52 0.82,1.2 c -0.35,-0.34 -0.63,-0.74 -0.82,-1.2 Z M 821.62,897.38 c 0.72,-0.05 1.05,0.28 1,1 c -0.34,-0.32 -0.68,-0.66 -1,-1 Z M 822.62,898.38 c 0.68,-0.11 1.06,0.16 1.15,0.82 c -0.44,-0.2 -0.82,-0.48 -1.15,-0.82 Z M 824.79,900.19 c 0.66,0.11 0.94,0.51 0.83,1.19 c -0.35,-0.34 -0.63,-0.74 -0.83,-1.19 Z M 825.62,901.38 c 0.72,-0.05 1.05,0.28 1,1 c -0.34,-0.32 -0.68,-0.66 -1,-1 Z M 826.62,902.38 c 0.68,-0.11 1.08,0.17 1.21,0.82 c -0.46,-0.19 -0.86,-0.46 -1.21,-0.82 Z M 828.78,904.17 c 0.66,0.12 0.95,0.53 0.84,1.21 c -0.36,-0.35 -0.64,-0.75 -0.84,-1.21 Z M 829.62,905.38 c 0.72,-0.05 1.05,0.28 1,1 c -0.34,-0.32 -0.68,-0.66 -1,-1 Z M 830.62,906.38 c 0.67,-0.12 1.02,0.15 1.06,0.81 c -0.4,-0.21 -0.75,-0.48 -1.06,-0.81 Z M 832.83,908.3 c 0.65,0.06 0.92,0.42 0.81,1.08 c -0.34,-0.31 -0.61,-0.67 -0.81,-1.08 Z M 833.64,909.38 c 0.82,-0.24 1.08,0.04 0.78,0.83 c -0.26,-0.27 -0.53,-0.55 -0.78,-0.83 Z M 937.28,912.25 c -0.25,0.42 -0.54,0.8 -0.89,1.13 c -0.1,-0.69 0.2,-1.07 0.89,-1.13 Z M 936.39,913.38 c -0.35,0.36 -0.72,0.68 -1.13,0.96 c 0.04,-0.72 0.41,-1.03 1.13,-0.96 Z M 934.33,915.27 c -0.28,0.4 -0.59,0.78 -0.94,1.12 c -0.08,-0.72 0.23,-1.09 0.94,-1.12 Z M 933.39,916.39 c -0.32,0.34 -0.66,0.68 -1,1 c -0.07,-0.73 0.27,-1.07 1,-1 Z M 932.39,917.39 c -0.35,0.35 -0.75,0.64 -1.19,0.86 c 0.1,-0.68 0.5,-0.97 1.19,-0.86 Z M 930.26,919.29 c -0.24,0.4 -0.54,0.77 -0.87,1.1 c -0.1,-0.69 0.19,-1.06 0.87,-1.1 Z M 929.39,920.39 c -0.32,0.34 -0.66,0.68 -1,1 c -0.06,-0.73 0.27,-1.07 1,-1 Z M 928.39,921.39 c -0.35,0.35 -0.73,0.67 -1.13,0.95 c 0.03,-0.71 0.41,-1.03 1.13,-0.95 Z M 926.32,923.31 c -0.28,0.39 -0.59,0.75 -0.93,1.08 c -0.09,-0.71 0.22,-1.07 0.93,-1.08 Z M 925.39,924.39 c -0.32,0.34 -0.66,0.68 -1,1 c -0.06,-0.73 0.27,-1.07 1,-1 Z M 924.39,925.39 c -0.36,0.36 -0.76,0.66 -1.21,0.9 c 0.1,-0.69 0.5,-1 1.21,-0.9 Z M 922.18,927.27 c -0.2,0.42 -0.46,0.79 -0.79,1.11 c -0.12,-0.66 0.14,-1.03 0.79,-1.11 Z M 921.39,928.38 c -0.32,0.35 -0.66,0.69 -1.01,1.01 c -0.06,-0.73 0.28,-1.07 1.01,-1.01 Z M 920.38,929.39 c -0.34,0.34 -0.74,0.61 -1.19,0.79 c 0.13,-0.65 0.53,-0.91 1.19,-0.79 Z M 1114.79,948.6 c 0.75,-0.29 1.02,-0.03 0.81,0.78 c -0.27,-0.26 -0.54,-0.52 -0.81,-0.78 Z M 1115.6,949.38 c 0.69,-0.11 1.09,0.17 1.21,0.84 c -0.45,-0.21 -0.86,-0.49 -1.21,-0.84 Z M 1117.72,951.24 c 0.69,0.06 0.99,0.44 0.89,1.15 c -0.35,-0.35 -0.65,-0.73 -0.89,-1.15 Z M 1118.61,952.39 c 0.72,-0.06 1.06,0.28 1,1 c -0.34,-0.32 -0.68,-0.66 -1,-1 Z M 1119.61,953.39 c 0.69,-0.11 1.05,0.17 1.07,0.86 c -0.39,-0.25 -0.74,-0.53 -1.07,-0.86 Z M 1121.74,955.18 c 0.69,0.11 0.98,0.51 0.87,1.21 c -0.35,-0.36 -0.64,-0.76 -0.87,-1.21 Z M 1122.61,956.39 c 0.72,-0.06 1.06,0.28 1,1 c -0.34,-0.32 -0.68,-0.66 -1,-1 Z M 1123.61,957.39 c 0.72,-0.09 1.1,0.23 1.14,0.94 c -0.41,-0.28 -0.79,-0.59 -1.14,-0.94 Z M 1125.68,959.27 c 0.71,0.03 1.02,0.4 0.93,1.12 c -0.35,-0.34 -0.66,-0.71 -0.93,-1.12 Z M 1126.61,960.39 c 0.72,-0.06 1.06,0.28 1,1 c -0.34,-0.32 -0.68,-0.66 -1,-1 Z M 1127.61,961.39 c 0.72,-0.09 1.07,0.22 1.07,0.94 c -0.38,-0.29 -0.74,-0.6 -1.07,-0.94 Z M 1129.73,963.31 c 0.69,0.02 0.99,0.38 0.88,1.08 c -0.33,-0.33 -0.62,-0.69 -0.88,-1.08 Z M 1130.61,964.39 c 0.72,-0.06 1.06,0.28 1.01,1 c -0.35,-0.32 -0.69,-0.66 -1.01,-1 Z M 1131.62,965.39 c 0.67,-0.12 1.04,0.15 1.1,0.81 c -0.41,-0.21 -0.78,-0.48 -1.1,-0.81 Z M 1133.82,967.2 c 0.65,0.12 0.91,0.52 0.79,1.18 c -0.34,-0.34 -0.6,-0.73 -0.79,-1.18 Z M 1134.61,968.38 c 0.72,-0.05 1.06,0.29 1,1.01 c -0.34,-0.32 -0.68,-0.66 -1,-1.01 Z M 1135.61,969.39 c 0.7,-0.1 1.08,0.2 1.12,0.89 c -0.41,-0.25 -0.78,-0.55 -1.12,-0.89 Z M 1137.7,971.28 c 0.7,0.03 1.01,0.4 0.91,1.11 c -0.34,-0.34 -0.64,-0.71 -0.91,-1.11 Z M 1138.61,972.39 c 0.72,-0.06 1.06,0.28 1,1 c -0.34,-0.32 -0.68,-0.66 -1,-1 Z M 1139.61,973.39 c 0.72,-0.09 1.13,0.23 1.21,0.95 c -0.44,-0.27 -0.84,-0.59 -1.21,-0.95 Z M 1083.21,976.58 c -0.27,0.26 -0.55,0.52 -0.83,0.78 c -0.24,-0.85 0.04,-1.11 0.83,-0.78 Z M 1082.38,977.36 c -0.32,0.35 -0.65,0.69 -1,1.02 c -0.06,-0.73 0.28,-1.07 1,-1.02 Z M 1081.38,978.38 c -0.34,0.36 -0.72,0.67 -1.14,0.94 c 0.05,-0.7 0.43,-1.02 1.14,-0.94 Z M 1079.23,980.22 c -0.22,0.44 -0.5,0.82 -0.85,1.16 c -0.1,-0.68 0.18,-1.07 0.85,-1.16 Z M 1078.38,981.38 c -0.32,0.34 -0.66,0.68 -1,1 c -0.06,-0.72 0.27,-1.06 1,-1 Z M 1077.38,982.38 c -0.31,0.33 -0.66,0.62 -1.04,0.86 c 0.01,-0.67 0.35,-0.96 1.04,-0.86 Z M 1075.34,984.31 c -0.29,0.39 -0.61,0.74 -0.96,1.07 c -0.07,-0.72 0.25,-1.07 0.96,-1.07 Z M 1074.38,985.38 c -0.32,0.35 -0.66,0.68 -1,1 c -0.06,-0.72 0.28,-1.06 1,-1 Z M 1073.38,986.38 c -0.33,0.34 -0.69,0.64 -1.09,0.88 c 0.03,-0.68 0.4,-0.98 1.09,-0.88 Z M 1071.19,988.25 c -0.2,0.43 -0.47,0.8 -0.81,1.13 c -0.11,-0.67 0.16,-1.04 0.81,-1.13 Z M 1070.38,989.38 c -0.32,0.34 -0.66,0.68 -1,1 c -0.06,-0.73 0.28,-1.06 1,-1 Z M 950.84,989.76 c -0.13,0.66 -0.54,0.95 -1.22,0.87 c 0.35,-0.37 0.76,-0.66 1.22,-0.87 Z M 1069.38,990.38 c -0.35,0.35 -0.75,0.63 -1.2,0.82 c 0.13,-0.65 0.53,-0.93 1.2,-0.82 Z M 949.62,990.63 c 0.09,0.69 -0.21,1.04 -0.9,1.03 c 0.26,-0.38 0.57,-0.72 0.9,-1.03 Z M 1067.28,992.3 c -0.26,0.4 -0.56,0.76 -0.9,1.08 c -0.09,-0.7 0.21,-1.06 0.9,-1.08 Z M 947.67,992.66 c 0.02,0.72 -0.33,1.04 -1.05,0.96 c 0.33,-0.35 0.68,-0.66 1.05,-0.96 Z M 1066.38,993.38 c -0.32,0.34 -0.66,0.68 -1,1 c -0.06,-0.73 0.28,-1.06 1,-1 Z M 946.62,993.62 c 0.05,0.72 -0.28,1.05 -1,1 c 0.32,-0.34 0.65,-0.68 1,-1 Z M 1065.38,994.38 c -0.33,0.34 -0.72,0.61 -1.16,0.8 c 0.11,-0.65 0.49,-0.91 1.16,-0.8 Z M 945.62,994.62 c 0.12,0.67 -0.15,1.03 -0.8,1.08 c 0.2,-0.41 0.47,-0.77 0.8,-1.08 Z M 1063.26,996.21 c -0.23,0.44 -0.53,0.83 -0.88,1.17 c -0.09,-0.69 0.2,-1.08 0.88,-1.17 Z M 943.8,996.83 c -0.12,0.65 -0.52,0.91 -1.18,0.79 c 0.34,-0.35 0.73,-0.61 1.18,-0.79 Z M 1062.38,997.38 c -0.32,0.34 -0.66,0.68 -1,1 c -0.06,-0.72 0.27,-1.06 1,-1 Z M 942.62,997.62 c 0.05,0.72 -0.28,1.05 -1,1 c 0.32,-0.34 0.66,-0.68 1,-1 Z M 1061.38,998.38 c -0.33,0.35 -0.7,0.66 -1.1,0.94 c 0.02,-0.71 0.39,-1.02 1.1,-0.94 Z M 941.62,998.62 c 0.1,0.7 -0.2,1.1 -0.88,1.22 c 0.22,-0.46 0.52,-0.86 0.88,-1.22 Z M 1059.31,1000.19 c -0.25,0.44 -0.57,0.84 -0.93,1.19 c -0.08,-0.71 0.23,-1.1 0.93,-1.19 Z M 939.79,1000.8 c -0.11,0.66 -0.49,0.93 -1.17,0.82 c 0.34,-0.35 0.73,-0.62 1.17,-0.82 Z M 1058.38,1001.38 c -0.32,0.35 -0.66,0.68 -1,1 c -0.06,-0.72 0.27,-1.06 1,-1 Z M 938.62,1001.62 c 0.05,0.72 -0.28,1.05 -1,1 c 0.32,-0.34 0.66,-0.68 1,-1 Z M 1057.38,1002.38 c -0.32,0.33 -0.67,0.61 -1.07,0.82 c 0.04,-0.66 0.4,-0.93 1.07,-0.82 Z M 937.62,1002.62 c 0.1,0.69 -0.19,1.04 -0.88,1.04 c 0.25,-0.38 0.55,-0.73 0.88,-1.04 Z M 1055.21,1004.31 c -0.22,0.4 -0.5,0.75 -0.83,1.07 c -0.11,-0.68 0.17,-1.03 0.83,-1.07 Z M 935.81,1004.73 c -0.09,0.69 -0.49,0.98 -1.19,0.89 c 0.35,-0.36 0.75,-0.66 1.19,-0.89 Z M 1054.38,1005.38 c -0.32,0.34 -0.66,0.68 -1,1 c -0.06,-0.73 0.28,-1.06 1,-1 Z M 934.62,1005.62 c 0.05,0.72 -0.28,1.05 -1,1 c 0.32,-0.34 0.66,-0.68 1,-1 Z M 1053.38,1006.38 c -0.34,0.35 -0.72,0.63 -1.15,0.85 c 0.09,-0.67 0.47,-0.95 1.15,-0.85 Z M 933.62,1006.62 c 0.12,0.67 -0.15,1.07 -0.8,1.2 c 0.18,-0.46 0.45,-0.86 0.8,-1.2 Z M 1051.29,1008.31 c -0.27,0.39 -0.57,0.75 -0.91,1.07 c -0.09,-0.7 0.21,-1.06 0.91,-1.07 Z M 931.74,1008.8 c -0.07,0.66 -0.44,0.93 -1.12,0.82 c 0.33,-0.34 0.7,-0.62 1.12,-0.82 Z M 1050.38,1009.38 c -0.32,0.34 -0.66,0.68 -1,1 c -0.06,-0.72 0.28,-1.06 1,-1 Z M 930.62,1009.62 c 0.05,0.72 -0.28,1.05 -1,1 c 0.32,-0.34 0.66,-0.68 1,-1 Z M 1049.38,1010.38 c -0.32,0.34 -0.68,0.65 -1.06,0.91 c 0,-0.69 0.36,-1 1.06,-0.91 Z M 929.62,1010.62 c 0.1,0.69 -0.19,1.09 -0.87,1.19 c 0.22,-0.45 0.51,-0.84 0.87,-1.19 Z M 927.82,1012.74 c -0.1,0.68 -0.5,0.98 -1.2,0.88 c 0.35,-0.36 0.75,-0.65 1.2,-0.88 Z M 926.62,1013.62 c 0.05,0.72 -0.28,1.05 -1,1 c 0.32,-0.34 0.66,-0.68 1,-1 Z M 925.62,1014.62 c 0.08,0.72 -0.24,1.07 -0.96,1.07 c 0.29,-0.38 0.61,-0.74 0.96,-1.07 Z M 923.7,1016.82 c -0.05,0.65 -0.41,0.92 -1.08,0.8 c 0.31,-0.33 0.67,-0.6 1.08,-0.8 Z M 922.62,1017.62 c 0.05,0.72 -0.28,1.05 -1,1 c 0.32,-0.34 0.66,-0.68 1,-1 Z M 921.62,1018.62 c 0.11,0.68 -0.17,1.09 -0.83,1.23 c 0.19,-0.47 0.47,-0.88 0.83,-1.23 Z M 919.69,1020.79 c -0.04,0.67 -0.39,0.94 -1.07,0.83 c 0.32,-0.33 0.67,-0.61 1.07,-0.83 Z M 918.62,1021.62 c 0.05,0.72 -0.28,1.05 -1,1 c 0.32,-0.34 0.66,-0.68 1,-1 Z M 917.62,1022.62 c 0.1,0.69 -0.18,1.07 -0.86,1.13 c 0.23,-0.42 0.51,-0.8 0.86,-1.13 Z M 859.16,1025.82 c 0.47,0.18 0.87,0.44 1.22,0.79 c -0.66,0.12 -1.07,-0.14 -1.22,-0.79 Z M 860.38,1026.61 c 0.35,0.32 0.69,0.66 1.01,1 c -0.72,0.06 -1.06,-0.28 -1.01,-1 Z M 861.39,1027.61 c 0.36,0.36 0.66,0.77 0.91,1.21 c -0.7,-0.1 -1.01,-0.5 -0.91,-1.21 Z M 863.34,1029.73 c 0.38,0.26 0.73,0.55 1.05,0.88 c -0.7,0.1 -1.05,-0.19 -1.05,-0.88 Z M 864.39,1030.61 c 0.34,0.32 0.68,0.66 1,1 c -0.72,0.06 -1.06,-0.28 -1,-1 Z M 865.39,1031.61 c 0.33,0.33 0.63,0.69 0.89,1.08 c -0.7,-0.02 -0.99,-0.38 -0.89,-1.08 Z M 867.17,1033.78 c 0.46,0.2 0.86,0.48 1.22,0.83 c -0.69,0.11 -1.09,-0.17 -1.22,-0.83 Z M 868.39,1034.61 c 0.34,0.32 0.68,0.66 1,1 c -0.72,0.06 -1.06,-0.28 -1,-1 Z M 869.39,1035.61 c 0.35,0.34 0.65,0.72 0.92,1.13 c -0.71,-0.04 -1.01,-0.42 -0.92,-1.13 Z M 871.25,1037.71 c 0.41,0.25 0.79,0.55 1.14,0.9 c -0.71,0.1 -1.09,-0.2 -1.14,-0.9 Z M 872.39,1038.61 c 0.34,0.32 0.68,0.66 1,1 c -0.72,0.06 -1.06,-0.28 -1,-1 Z M 873.39,1039.61 c 0.36,0.36 0.65,0.77 0.88,1.23 c -0.68,-0.12 -0.98,-0.53 -0.88,-1.23 Z M 875.32,1041.76 c 0.39,0.24 0.75,0.52 1.07,0.85 c -0.69,0.11 -1.04,-0.17 -1.07,-0.85 Z M 876.39,1042.61 c 0.34,0.32 0.68,0.66 1,1 c -0.72,0.06 -1.06,-0.28 -1,-1 Z M 877.39,1043.61 c 0.34,0.34 0.65,0.72 0.91,1.13 c -0.7,-0.05 -1.01,-0.42 -0.91,-1.13 Z M 879.29,1045.76 c 0.4,0.23 0.77,0.52 1.1,0.85 c -0.69,0.11 -1.06,-0.17 -1.1,-0.85 Z M 880.39,1046.61 c 0.34,0.32 0.68,0.66 1,1 c -0.72,0.06 -1.06,-0.28 -1,-1 Z M 881.39,1047.61 c 0.33,0.33 0.62,0.68 0.88,1.07 c -0.69,-0.02 -0.99,-0.37 -0.88,-1.07 Z M 883.19,1049.83 c 0.37,0.14 0.71,0.33 1.02,0.58 c -0.68,0.38 -1.02,0.18 -1.02,-0.58 Z M 1080.81,1069.68 c -0.08,0.71 -0.48,1.02 -1.2,0.93 c 0.36,-0.36 0.76,-0.67 1.2,-0.93 Z M 1079.61,1070.61 c 0.06,0.72 -0.28,1.06 -1,1 c 0.32,-0.34 0.66,-0.68 1,-1 Z M 1078.61,1071.61 c 0.1,0.7 -0.19,1.06 -0.89,1.07 c 0.26,-0.39 0.56,-0.74 0.89,-1.07 Z M 1076.77,1073.78 c -0.09,0.67 -0.47,0.95 -1.16,0.83 c 0.34,-0.34 0.73,-0.62 1.16,-0.83 Z M 1075.61,1074.61 c 0.06,0.72 -0.28,1.06 -1,1 c 0.32,-0.34 0.66,-0.68 1,-1 Z M 1074.61,1075.61 c 0.12,0.68 -0.15,1.09 -0.8,1.23 c 0.18,-0.47 0.45,-0.87 0.8,-1.23 Z M 1072.82,1077.67 c -0.09,0.71 -0.49,1.03 -1.21,0.94 c 0.37,-0.36 0.77,-0.68 1.21,-0.94 Z M 1071.61,1078.61 c 0.06,0.72 -0.28,1.06 -1,1.01 c 0.32,-0.35 0.66,-0.69 1,-1.01 Z M 1070.61,1079.62 c 0.12,0.68 -0.16,1.02 -0.84,1.04 c 0.24,-0.38 0.52,-0.73 0.84,-1.04 Z M 1068.74,1081.7 c -0.05,0.7 -0.42,1.01 -1.13,0.91 c 0.34,-0.34 0.72,-0.65 1.13,-0.91 Z M 1067.61,1082.61 c 0.06,0.72 -0.28,1.06 -1,1 c 0.32,-0.34 0.66,-0.68 1,-1 Z M 1066.61,1083.61 c 0.11,0.69 -0.17,1.05 -0.85,1.09 c 0.23,-0.4 0.52,-0.76 0.85,-1.09 Z M 1064.8,1085.72 c -0.09,0.7 -0.49,0.99 -1.19,0.9 c 0.35,-0.36 0.75,-0.66 1.19,-0.9 Z M 1063.61,1086.62 c 0.16,0.78 -0.16,1.13 -0.95,1.04 c 0.3,-0.37 0.61,-0.72 0.95,-1.04 Z M 1164.58,1088.79 c 0.26,0.27 0.52,0.55 0.78,0.83 c -0.81,0.24 -1.07,-0.04 -0.78,-0.83 Z M 1165.36,1089.62 c 0.36,0.32 0.7,0.65 1.02,1.01 c -0.72,0.04 -1.06,-0.29 -1.02,-1.01 Z M 1166.38,1090.63 c 0.33,0.3 0.59,0.65 0.79,1.05 c -0.65,-0.05 -0.91,-0.4 -0.79,-1.05 Z M 1168.34,1092.72 c 0.38,0.27 0.72,0.57 1.04,0.9 c -0.7,0.09 -1.04,-0.2 -1.04,-0.9 Z M 1169.38,1093.62 c 0.34,0.32 0.68,0.66 1,1 c -0.72,0.05 -1.05,-0.28 -1,-1 Z M 1170.38,1094.62 c 0.34,0.33 0.62,0.7 0.84,1.12 c -0.67,-0.07 -0.95,-0.44 -0.84,-1.12 Z M 1172.34,1096.74 c 0.38,0.26 0.73,0.55 1.04,0.88 c -0.69,0.1 -1.04,-0.19 -1.04,-0.88 Z M 1173.38,1097.62 c 0.34,0.32 0.68,0.66 1,1 c -0.72,0.05 -1.05,-0.28 -1,-1 Z M 1174.38,1098.62 c 0.34,0.32 0.62,0.69 0.84,1.09 c -0.67,-0.04 -0.95,-0.41 -0.84,-1.09 Z M 1176.21,1100.73 c 0.44,0.24 0.83,0.53 1.17,0.89 c -0.7,0.1 -1.09,-0.2 -1.17,-0.89 Z M 1177.38,1101.62 c 0.34,0.32 0.68,0.66 1,1 c -0.72,0.05 -1.05,-0.28 -1,-1 Z M 1178.38,1102.62 c 0.34,0.33 0.61,0.71 0.79,1.14 c -0.64,-0.09 -0.91,-0.47 -0.79,-1.14 Z M 1180.22,1104.67 c 0.42,0.27 0.81,0.59 1.16,0.95 c -0.72,0.08 -1.11,-0.24 -1.16,-0.95 Z M 1181.38,1105.62 c 0.35,0.32 0.68,0.66 1,1 c -0.72,0.05 -1.05,-0.28 -1,-1 Z M 1182.38,1106.62 c 0.34,0.33 0.66,0.67 0.96,1.03 c -0.88,0.19 -1.2,-0.15 -0.96,-1.03 Z M 898.43,1252.79 c 0.27,0.75 0,1.03 -0.79,0.83 c 0.26,-0.28 0.52,-0.56 0.79,-0.83 Z M 897.64,1253.62 c 0.05,0.73 -0.29,1.07 -1.02,1 c 0.33,-0.34 0.67,-0.68 1.02,-1 Z M 896.62,1254.62 c 0.06,0.73 -0.28,1.06 -1.01,0.99 c 0.33,-0.34 0.66,-0.67 1.01,-0.99 Z M 895.61,1255.61 c 0.07,0.73 -0.26,1.07 -0.99,1.01 c 0.32,-0.35 0.65,-0.68 0.99,-1.01 Z M 894.62,1256.62 c 0.07,0.73 -0.27,1.06 -0.99,1.01 c 0.32,-0.35 0.65,-0.68 0.99,-1.01 Z M 893.63,1257.63 c 0.05,0.72 -0.28,1.06 -1.01,0.99 c 0.33,-0.34 0.66,-0.67 1.01,-0.99 Z M 892.62,1258.62 c 0.06,0.73 -0.28,1.06 -1.01,0.99 c 0.33,-0.34 0.66,-0.67 1.01,-0.99 Z M 891.61,1259.61 c 0.07,0.73 -0.26,1.07 -0.99,1.01 c 0.32,-0.35 0.65,-0.68 0.99,-1.01 Z M 890.62,1260.62 c 0.07,0.73 -0.27,1.06 -0.99,1.01 c 0.32,-0.35 0.65,-0.68 0.99,-1.01 Z M 889.63,1261.63 c 0.05,0.72 -0.28,1.06 -1.01,0.99 c 0.33,-0.34 0.66,-0.67 1.01,-0.99 Z M 888.62,1262.62 c 0.06,0.73 -0.28,1.06 -1.01,0.99 c 0.33,-0.34 0.66,-0.67 1.01,-0.99 Z M 887.61,1263.61 c 0.07,0.73 -0.26,1.07 -0.99,1.01 c 0.32,-0.35 0.65,-0.68 0.99,-1.01 Z M 886.62,1264.62 c 0.07,0.73 -0.27,1.06 -0.99,1.01 c 0.32,-0.35 0.65,-0.68 0.99,-1.01 Z M 885.63,1265.63 c 0.05,0.72 -0.28,1.06 -1.01,0.99 c 0.33,-0.34 0.66,-0.67 1.01,-0.99 Z M 884.62,1266.62 c 0.06,0.73 -0.28,1.06 -1.01,0.99 c 0.33,-0.34 0.66,-0.67 1.01,-0.99 Z M 883.61,1267.61 c 0.07,0.73 -0.26,1.07 -0.99,1.01 c 0.32,-0.35 0.65,-0.68 0.99,-1.01 Z M 882.62,1268.62 c 0.07,0.73 -0.27,1.06 -0.99,1.01 c 0.32,-0.35 0.65,-0.68 0.99,-1.01 Z M 881.63,1269.63 c 0.05,0.73 -0.28,1.06 -1.01,1 c 0.32,-0.35 0.66,-0.68 1.01,-1 Z M 880.62,1270.63 c 0.23,0.88 -0.09,1.22 -0.96,1.02 c 0.3,-0.36 0.62,-0.7 0.96,-1.02 Z M 1439.79,1272.59 c 0.79,-0.32 1.07,-0.06 0.83,0.77 c -0.28,-0.25 -0.56,-0.51 -0.83,-0.77 Z M 1440.62,1273.36 c 0.73,-0.05 1.06,0.28 1.01,1.01 c -0.35,-0.32 -0.69,-0.66 -1.01,-1.01 Z M 1348.29,1273.74 c 0.41,0.24 0.77,0.53 1.1,0.88 c -0.69,0.09 -1.05,-0.21 -1.1,-0.88 Z M 1441.63,1274.37 c 0.72,-0.05 1.06,0.28 0.99,1.01 c -0.34,-0.33 -0.67,-0.66 -0.99,-1.01 Z M 1349.39,1274.62 c 0.33,0.3 0.59,0.66 0.8,1.06 c -0.65,-0.05 -0.91,-0.41 -0.8,-1.06 Z M 1442.62,1275.38 c 0.73,-0.06 1.06,0.28 0.99,1.01 c -0.34,-0.33 -0.67,-0.66 -0.99,-1.01 Z M 1443.61,1276.39 c 0.73,-0.07 1.07,0.26 1.01,0.99 c -0.35,-0.32 -0.68,-0.65 -1.01,-0.99 Z M 1444.62,1277.38 c 0.73,-0.07 1.06,0.27 1.01,0.99 c -0.35,-0.32 -0.68,-0.65 -1.01,-0.99 Z M 1352.34,1277.7 c 0.38,0.27 0.73,0.58 1.05,0.91 c -0.7,0.08 -1.05,-0.22 -1.05,-0.91 Z M 1445.63,1278.37 c 0.72,-0.05 1.06,0.28 0.99,1.01 c -0.34,-0.33 -0.67,-0.66 -0.99,-1.01 Z M 1353.39,1278.61 c 0.34,0.34 0.61,0.73 0.81,1.17 c -0.65,-0.12 -0.92,-0.51 -0.81,-1.17 Z M 1446.62,1279.38 c 0.73,-0.06 1.06,0.28 0.99,1.01 c -0.34,-0.33 -0.67,-0.66 -0.99,-1.01 Z M 1447.61,1280.39 c 0.73,-0.07 1.07,0.26 1.01,0.99 c -0.35,-0.32 -0.68,-0.65 -1.01,-0.99 Z M 1448.62,1281.38 c 0.73,-0.07 1.06,0.27 1.01,0.99 c -0.35,-0.32 -0.68,-0.65 -1.01,-0.99 Z M 1356.27,1281.79 c 0.42,0.21 0.79,0.49 1.12,0.83 c -0.67,0.1 -1.04,-0.18 -1.12,-0.83 Z M 1449.63,1282.37 c 0.72,-0.05 1.06,0.28 0.99,1.01 c -0.34,-0.33 -0.67,-0.66 -0.99,-1.01 Z M 1357.39,1282.62 c 0.33,0.31 0.6,0.68 0.8,1.09 c -0.64,-0.07 -0.91,-0.44 -0.8,-1.09 Z M 1450.62,1283.38 c 0.73,-0.06 1.06,0.28 0.99,1.01 c -0.34,-0.33 -0.67,-0.66 -0.99,-1.01 Z M 1451.61,1284.39 c 0.73,-0.07 1.07,0.26 1.01,0.99 c -0.35,-0.32 -0.68,-0.65 -1.01,-0.99 Z M 1452.62,1285.38 c 0.73,-0.07 1.06,0.27 1.01,0.99 c -0.35,-0.32 -0.68,-0.65 -1.01,-0.99 Z M 1360.17,1285.84 c 0.47,0.16 0.87,0.42 1.21,0.77 c -0.65,0.11 -1.05,-0.15 -1.21,-0.77 Z M 1453.63,1286.37 c 0.72,-0.05 1.06,0.28 0.99,1.01 c -0.34,-0.33 -0.67,-0.66 -0.99,-1.01 Z M 1361.38,1286.61 c 0.37,0.35 0.67,0.75 0.91,1.19 c -0.68,-0.1 -0.98,-0.49 -0.91,-1.19 Z M 1454.62,1287.38 c 0.73,-0.06 1.06,0.28 0.99,1.01 c -0.34,-0.33 -0.67,-0.66 -0.99,-1.01 Z M 1455.61,1288.39 c 0.73,-0.07 1.07,0.26 1.01,0.99 c -0.35,-0.32 -0.68,-0.65 -1.01,-0.99 Z M 1456.62,1289.38 c 0.73,-0.07 1.06,0.27 1.01,0.99 c -0.35,-0.32 -0.68,-0.65 -1.01,-0.99 Z M 1364.19,1289.72 c 0.45,0.24 0.85,0.53 1.2,0.9 c -0.69,0.08 -1.09,-0.22 -1.2,-0.9 Z M 1457.63,1290.37 c 0.72,-0.05 1.06,0.28 0.99,1.01 c -0.34,-0.33 -0.67,-0.66 -0.99,-1.01 Z M 1365.39,1290.62 c 0.34,0.32 0.66,0.66 0.96,1.02 c -0.81,0.14 -1.13,-0.2 -0.96,-1.02 Z M 1458.62,1291.38 c 0.73,-0.06 1.06,0.28 0.99,1.01 c -0.34,-0.33 -0.67,-0.66 -0.99,-1.01 Z M 1459.61,1292.39 c 0.73,-0.07 1.07,0.26 1.01,0.99 c -0.35,-0.32 -0.68,-0.65 -1.01,-0.99 Z M 1460.62,1293.38 c 0.73,-0.07 1.06,0.27 1.01,0.99 c -0.35,-0.32 -0.68,-0.65 -1.01,-0.99 Z M 1461.63,1294.37 c 0.72,-0.05 1.06,0.28 0.99,1.01 c -0.34,-0.33 -0.67,-0.66 -0.99,-1.01 Z M 1462.62,1295.38 c 0.73,-0.06 1.06,0.28 0.99,1.01 c -0.34,-0.33 -0.67,-0.66 -0.99,-1.01 Z M 1463.61,1296.39 c 0.73,-0.07 1.07,0.26 1.01,0.99 c -0.35,-0.32 -0.68,-0.65 -1.01,-0.99 Z M 1464.62,1297.38 c 0.73,-0.07 1.06,0.27 1.01,0.99 c -0.35,-0.32 -0.68,-0.65 -1.01,-0.99 Z M 1465.63,1298.37 c 0.72,-0.05 1.06,0.28 0.99,1.01 c -0.34,-0.33 -0.67,-0.66 -0.99,-1.01 Z M 1466.62,1299.38 c 0.73,-0.06 1.06,0.27 1,1 c -0.35,-0.32 -0.68,-0.65 -1,-1 Z M 1467.62,1300.38 c 0.67,-0.11 1.05,0.17 1.14,0.83 c -0.43,-0.2 -0.82,-0.48 -1.14,-0.83 Z"/></g>
<g><path fill="#ffffff" fill-opacity="0.651" d="M 1471,562 c 20.17,-0.01 40.34,-0.01 60.52,-0.02 c 0.81,0 1.59,0.14 2.35,0.42 c -0.04,0.22 -0.08,0.43 -0.12,0.64 c -20.86,-0.07 -41.73,-0.06 -62.59,0.04 c -0.05,-0.36 -0.11,-0.72 -0.16,-1.08 Z M 466.26,1436.92 c 20.83,0.07 41.66,0.11 62.49,0.13 c 0.09,0.42 0.17,0.85 0.26,1.28 c -0.82,-0.24 -1.65,-0.35 -2.5,-0.34 c -19.34,0.02 -38.68,0.02 -58.03,0.03 c -0.81,0 -1.59,-0.14 -2.35,-0.42 c 0.05,-0.23 0.09,-0.45 0.13,-0.68 Z"/></g>
<g><path fill="#ffffff" fill-opacity="0.282" d="M 1308.19,567.86 c -9.35,0.16 -18.71,0.24 -28.08,0.22 c -0.5,-0.96 0.72,-0.91 1.31,-1.07 c 8.7,-0.06 17.41,-0.02 26.1,0.14 c 0.39,0.1 0.61,0.33 0.67,0.71 Z M 691.85,1432.12 c 9.34,-0.14 18.69,-0.21 28.04,-0.2 c 0.42,1.24 -1.76,1.08 -2.38,1.1 c -8.02,-0.02 -16.05,-0.02 -24.07,0 c -0.81,0.12 -1.34,-0.18 -1.59,-0.9 Z"/></g>
<g><path fill="#ffffff" fill-opacity="0.145" d="M 814.68,890.32 c 0.8,-0.18 1.14,0.13 1.02,0.95 c -0.39,-0.26 -0.73,-0.58 -1.02,-0.95 Z M 858.32,1024.68 c 0.38,0.31 0.66,0.69 0.84,1.14 c -0.78,-0.03 -1.06,-0.41 -0.84,-1.14 Z"/></g>
<g><path fill="#ffffff" stroke="#ffffff" stroke-width="0.5" d="M 1471.16,563.08 c 20.86,-0.1 41.73,-0.11 62.59,-0.04 c 0.11,289.66 0.23,579.32 0.36,868.99 c -9.33,-0.04 -18.65,-0.08 -27.98,-0.13 c -46.71,-46.63 -93.3,-93.38 -139.78,-140.26 c -0.3,-0.36 -0.62,-0.7 -0.96,-1.02 c -0.35,-0.37 -0.75,-0.66 -1.2,-0.9 c -0.2,-0.42 -0.48,-0.78 -0.82,-1.09 c -0.31,-0.34 -0.67,-0.62 -1.08,-0.83 c -0.24,-0.44 -0.54,-0.84 -0.91,-1.19 c -0.34,-0.35 -0.74,-0.61 -1.21,-0.77 c -0.17,-0.47 -0.44,-0.87 -0.8,-1.21 c -0.34,-0.37 -0.74,-0.68 -1.18,-0.92 c -0.2,-0.41 -0.47,-0.78 -0.8,-1.09 c -0.33,-0.34 -0.7,-0.62 -1.12,-0.83 c -0.23,-0.44 -0.53,-0.82 -0.9,-1.16 c -0.33,-0.36 -0.73,-0.64 -1.17,-0.85 c -0.2,-0.44 -0.47,-0.83 -0.81,-1.17 c -0.32,-0.33 -0.67,-0.64 -1.05,-0.91 c -0.29,-0.39 -0.61,-0.75 -0.97,-1.07 c -0.34,-0.38 -0.74,-0.69 -1.18,-0.95 c -0.21,-0.4 -0.47,-0.76 -0.8,-1.06 c -0.33,-0.35 -0.69,-0.64 -1.1,-0.88 c -0.2,-0.34 -0.45,-0.66 -0.72,-0.95 c -54.75,-55.03 -109.5,-110.08 -164.23,-165.14 c -0.3,-0.36 -0.62,-0.7 -0.96,-1.03 c -0.32,-0.34 -0.65,-0.68 -1,-1 c -0.35,-0.36 -0.74,-0.68 -1.16,-0.95 c -0.26,-0.41 -0.61,-0.71 -1.05,-0.91 c -0.18,-0.43 -0.45,-0.81 -0.79,-1.14 c -0.32,-0.34 -0.66,-0.68 -1,-1 c -0.34,-0.36 -0.73,-0.65 -1.17,-0.89 c -0.23,-0.43 -0.56,-0.77 -0.99,-1.02 c -0.22,-0.4 -0.5,-0.77 -0.84,-1.09 c -0.32,-0.34 -0.66,-0.68 -1,-1 c -0.31,-0.33 -0.66,-0.62 -1.04,-0.88 c -0.29,-0.42 -0.67,-0.76 -1.12,-1 c -0.22,-0.42 -0.5,-0.79 -0.84,-1.12 c -0.32,-0.34 -0.66,-0.68 -1,-1 c -0.32,-0.33 -0.66,-0.63 -1.04,-0.9 c -0.31,-0.43 -0.71,-0.78 -1.17,-1.04 c -0.2,-0.4 -0.46,-0.75 -0.79,-1.05 c -0.32,-0.36 -0.66,-0.69 -1.02,-1.01 c -0.26,-0.28 -0.52,-0.56 -0.78,-0.83 c -16.57,-16.65 -33.13,-33.31 -49.68,-49.98 c -0.9,-1.08 -1.94,-1.27 -3.12,-0.56 c -10.07,10.22 -20.19,20.41 -30.35,30.55 c -0.24,0.26 -0.45,0.56 -0.62,0.88 c -0.44,0.26 -0.84,0.57 -1.2,0.93 c -0.34,0.32 -0.68,0.66 -1,1 c -0.33,0.33 -0.63,0.68 -0.89,1.07 c -0.41,0.29 -0.72,0.65 -0.95,1.1 c -0.43,0.21 -0.82,0.49 -1.16,0.83 c -0.34,0.32 -0.68,0.66 -1,1 c -0.35,0.36 -0.62,0.76 -0.8,1.23 c -0.43,0.15 -0.76,0.43 -0.99,0.83 c -0.44,0.26 -0.84,0.58 -1.21,0.94 c -0.34,0.32 -0.68,0.66 -1,1.01 c -0.32,0.31 -0.6,0.66 -0.84,1.04 c -0.41,0.28 -0.76,0.62 -1.03,1.04 c -0.41,0.26 -0.79,0.57 -1.13,0.91 c -0.34,0.32 -0.68,0.66 -1,1 c -0.33,0.33 -0.62,0.69 -0.85,1.09 c -0.41,0.25 -0.73,0.6 -0.96,1.02 c -0.44,0.24 -0.84,0.54 -1.19,0.9 c -0.34,0.32 -0.65,0.67 -0.95,1.04 c -54.71,55.07 -109.46,110.11 -164.23,165.13 c -0.27,0.27 -0.53,0.55 -0.79,0.83 c -0.35,0.32 -0.69,0.66 -1.02,1 c -0.35,0.32 -0.68,0.65 -1.01,0.99 c -0.34,0.33 -0.67,0.66 -0.99,1.01 c -0.34,0.33 -0.67,0.66 -0.99,1.01 c -0.35,0.32 -0.68,0.65 -1.01,0.99 c -0.35,0.32 -0.68,0.65 -1.01,0.99 c -0.34,0.33 -0.67,0.66 -0.99,1.01 c -0.34,0.33 -0.67,0.66 -0.99,1.01 c -0.35,0.32 -0.68,0.65 -1.01,0.99 c -0.35,0.32 -0.68,0.65 -1.01,0.99 c -0.34,0.33 -0.67,0.66 -0.99,1.01 c -0.34,0.33 -0.67,0.66 -0.99,1.01 c -0.35,0.32 -0.68,0.65 -1.01,0.99 c -0.35,0.32 -0.68,0.65 -1.01,0.99 c -0.34,0.33 -0.67,0.66 -0.99,1.01 c -0.34,0.33 -0.67,0.66 -0.99,1.01 c -0.35,0.32 -0.69,0.65 -1.01,1 c -0.34,0.32 -0.66,0.66 -0.96,1.02 c -48.13,48.37 -96.23,96.77 -144.31,145.2 c -5.04,5.16 -10.19,10.18 -15.46,15.07 c -9.35,-0.01 -18.7,0.06 -28.04,0.2 c 0.23,-149.87 0.3,-299.75 0.21,-449.63 c -0.23,-1.24 0.21,-2.07 1.33,-2.51 c 0.04,0.56 0.28,1.03 0.73,1.39 c 19.87,19.78 39.71,39.61 59.52,59.46 c 0.4,0.39 0.86,0.66 1.39,0.83 c -0.04,86.28 -0.06,172.57 -0.06,258.86 c -0.14,0.89 0.09,1.65 0.67,2.28 c 0.62,0.01 0.95,-0.29 0.99,-0.9 c 97.03,-96.4 193.93,-192.91 290.72,-289.56 c 0.37,-0.3 0.69,-0.65 0.97,-1.05 c 0.38,-0.26 0.74,-0.57 1.06,-0.91 c 0.34,-0.32 0.68,-0.66 1,-1 c 0.34,-0.32 0.64,-0.68 0.91,-1.07 c 0.4,-0.28 0.72,-0.64 0.94,-1.08 c 0.43,-0.22 0.81,-0.5 1.15,-0.85 c 0.34,-0.32 0.68,-0.66 1,-1 c 0.33,-0.32 0.61,-0.67 0.83,-1.07 c 0.46,-0.28 0.82,-0.65 1.1,-1.11 c 0.4,-0.21 0.75,-0.49 1.07,-0.82 c 0.34,-0.32 0.68,-0.65 1,-1 c 0.36,-0.35 0.68,-0.75 0.93,-1.19 c 0.4,-0.21 0.72,-0.5 0.97,-0.87 c 0.4,-0.28 0.77,-0.59 1.1,-0.94 c 0.34,-0.32 0.68,-0.66 1,-1 c 0.35,-0.34 0.65,-0.73 0.88,-1.17 c 0.44,-0.23 0.76,-0.58 0.96,-1.03 c 0.44,-0.19 0.83,-0.46 1.16,-0.8 c 0.34,-0.32 0.68,-0.66 1,-1 c 0.34,-0.32 0.64,-0.68 0.9,-1.08 c 0.41,-0.27 0.71,-0.64 0.9,-1.1 c 0.45,-0.19 0.85,-0.47 1.2,-0.82 c 0.34,-0.32 0.68,-0.66 1,-1 c 0.34,-0.33 0.61,-0.7 0.81,-1.13 c 0.46,-0.22 0.82,-0.55 1.1,-0.99 c 0.4,-0.24 0.76,-0.54 1.09,-0.88 c 0.34,-0.32 0.68,-0.65 1,-1 c 0.35,-0.33 0.67,-0.68 0.96,-1.07 c 0.39,-0.3 0.73,-0.65 1,-1.07 c 0.38,-0.24 0.73,-0.53 1.04,-0.86 c 0.34,-0.32 0.68,-0.66 1,-1 c 0.35,-0.34 0.63,-0.72 0.85,-1.16 c 0.43,-0.2 0.76,-0.5 1.01,-0.9 c 0.42,-0.27 0.8,-0.58 1.14,-0.94 c 0.35,-0.33 0.68,-0.67 1,-1.02 c 0.28,-0.26 0.56,-0.52 0.83,-0.78 c 9.49,-9.46 18.96,-18.93 28.43,-28.41 c 1.19,-0.88 2.24,-0.74 3.15,0.43 c 0.27,0.26 0.54,0.52 0.81,0.78 c 0.35,0.35 0.76,0.63 1.21,0.84 c 0.19,0.44 0.5,0.78 0.91,1.02 c 0.24,0.42 0.54,0.8 0.89,1.15 c 0.32,0.34 0.66,0.68 1,1 c 0.33,0.33 0.68,0.61 1.07,0.86 c 0.27,0.41 0.62,0.72 1.06,0.93 c 0.23,0.45 0.52,0.85 0.87,1.21 c 0.32,0.34 0.66,0.68 1,1 c 0.35,0.35 0.73,0.66 1.14,0.94 c 0.24,0.38 0.56,0.69 0.93,0.94 c 0.27,0.41 0.58,0.78 0.93,1.12 c 0.32,0.34 0.66,0.68 1,1 c 0.33,0.34 0.69,0.65 1.07,0.94 c 0.3,0.38 0.65,0.71 1.05,0.98 c 0.26,0.39 0.55,0.75 0.88,1.08 c 0.32,0.34 0.66,0.68 1.01,1 c 0.32,0.33 0.69,0.6 1.1,0.81 c 0.26,0.46 0.63,0.79 1.1,1 c 0.19,0.45 0.45,0.84 0.79,1.18 c 0.32,0.35 0.66,0.69 1,1.01 c 0.34,0.34 0.71,0.64 1.12,0.89 c 0.25,0.41 0.58,0.74 0.97,1 c 0.27,0.4 0.57,0.77 0.91,1.11 c 0.32,0.34 0.66,0.68 1,1 c 0.37,0.36 0.77,0.68 1.21,0.95 c 0.22,0.38 0.5,0.71 0.84,0.99 c 99.4,99.06 198.78,198.15 298.13,297.26 c 0.27,0.26 0.55,0.52 0.83,0.77 c 0.32,0.35 0.66,0.69 1.01,1.01 c 0.32,0.35 0.65,0.68 0.99,1.01 c 0.32,0.35 0.65,0.68 0.99,1.01 c 0.33,0.34 0.66,0.67 1.01,0.99 c 0.33,0.34 0.66,0.67 1.01,0.99 c 0.32,0.35 0.65,0.68 0.99,1.01 c 0.32,0.35 0.65,0.68 0.99,1.01 c 0.33,0.34 0.66,0.67 1.01,0.99 c 0.33,0.34 0.66,0.67 1.01,0.99 c 0.32,0.35 0.65,0.68 0.99,1.01 c 0.32,0.35 0.65,0.68 0.99,1.01 c 0.33,0.34 0.66,0.67 1.01,0.99 c 0.33,0.34 0.66,0.67 1.01,0.99 c 0.32,0.35 0.65,0.68 0.99,1.01 c 0.32,0.35 0.65,0.68 0.99,1.01 c 0.33,0.34 0.66,0.67 1.01,0.99 c 0.33,0.34 0.66,0.67 1.01,0.99 c 0.32,0.35 0.65,0.68 0.99,1.01 c 0.32,0.35 0.65,0.68 0.99,1.01 c 0.33,0.34 0.66,0.67 1.01,0.99 c 0.33,0.34 0.66,0.67 1.01,0.99 c 0.32,0.35 0.65,0.68 0.99,1.01 c 0.32,0.35 0.65,0.68 0.99,1.01 c 0.33,0.34 0.66,0.67 1.01,0.99 c 0.33,0.34 0.66,0.67 1.01,0.99 c 0.32,0.35 0.65,0.68 0.99,1.01 c 0.32,0.35 0.65,0.68 1,1 c 0.32,0.35 0.71,0.63 1.14,0.83 c 1.46,2.22 2.22,1.99 2.28,-0.69 c -0.06,-245.82 -0.02,-491.63 0.12,-737.44 Z M 465.8,567.88 c 9.35,0.13 18.71,0.2 28.07,0.22 c 46.37,46.3 92.63,92.72 138.78,139.25 c 0.32,0.38 0.68,0.7 1.08,0.97 c 0.25,0.39 0.55,0.75 0.88,1.07 c 0.32,0.34 0.67,0.64 1.05,0.92 c 0.29,0.38 0.61,0.74 0.97,1.06 c 0.34,0.36 0.73,0.63 1.19,0.81 c 0.18,0.46 0.44,0.86 0.79,1.2 c 0.35,0.37 0.75,0.68 1.18,0.95 c 0.22,0.39 0.5,0.74 0.84,1.04 c 0.32,0.35 0.7,0.62 1.14,0.8 c 0.21,0.46 0.49,0.86 0.85,1.21 c 0.34,0.36 0.74,0.65 1.2,0.86 c 0.19,0.44 0.46,0.81 0.81,1.13 c 0.3,0.34 0.64,0.63 1.02,0.88 c 0.28,0.41 0.6,0.79 0.96,1.14 c 0.34,0.35 0.72,0.67 1.14,0.93 c 0.24,0.39 0.54,0.74 0.88,1.05 c 0.34,0.36 0.73,0.66 1.17,0.89 c 0.2,0.43 0.48,0.81 0.83,1.13 c 0.26,0.28 0.52,0.55 0.79,0.82 c 54.44,54.68 108.87,109.38 163.26,164.11 c 0.29,0.37 0.63,0.69 1.02,0.95 c 0.27,0.42 0.62,0.76 1.04,1.03 c 0.24,0.4 0.54,0.76 0.88,1.08 c 0.32,0.34 0.66,0.68 1,1 c 0.32,0.34 0.67,0.63 1.06,0.89 c 0.28,0.41 0.65,0.72 1.12,0.91 c 0.19,0.46 0.47,0.86 0.82,1.2 c 0.32,0.34 0.66,0.68 1,1 c 0.33,0.34 0.71,0.62 1.15,0.82 c 0.22,0.46 0.56,0.79 1.02,0.99 c 0.2,0.45 0.48,0.85 0.83,1.19 c 0.32,0.34 0.66,0.68 1,1 c 0.35,0.36 0.75,0.63 1.21,0.82 c 0.18,0.46 0.5,0.78 0.95,0.97 c 0.2,0.46 0.48,0.86 0.84,1.21 c 0.32,0.34 0.66,0.68 1,1 c 0.31,0.33 0.66,0.6 1.06,0.81 c 0.29,0.47 0.67,0.84 1.15,1.11 c 0.2,0.41 0.47,0.77 0.81,1.08 c 0.25,0.28 0.52,0.56 0.78,0.83 c 16.9,16.99 33.79,33.98 50.68,50.98 c 0.9,1.08 1.94,1.27 3.12,0.56 c 10.07,-10.22 20.19,-20.4 30.35,-30.54 c 0.27,-0.31 0.47,-0.65 0.62,-1.03 c 0.45,-0.18 0.85,-0.45 1.19,-0.79 c 0.35,-0.32 0.69,-0.66 1.01,-1.01 c 0.33,-0.32 0.59,-0.69 0.79,-1.11 c 0.44,-0.22 0.77,-0.55 1,-0.98 c 0.45,-0.24 0.85,-0.54 1.21,-0.9 c 0.34,-0.32 0.68,-0.66 1,-1 c 0.34,-0.33 0.65,-0.69 0.93,-1.08 c 0.37,-0.27 0.68,-0.59 0.94,-0.97 c 0.4,-0.28 0.78,-0.6 1.13,-0.95 c 0.34,-0.32 0.68,-0.66 1,-1 c 0.33,-0.33 0.63,-0.7 0.87,-1.1 c 0.41,-0.26 0.72,-0.61 0.94,-1.04 c 0.44,-0.22 0.84,-0.51 1.19,-0.86 c 0.34,-0.32 0.68,-0.66 1,-1 c 0.35,-0.34 0.66,-0.72 0.94,-1.12 c 0.37,-0.25 0.68,-0.56 0.93,-0.93 c 0.41,-0.28 0.78,-0.6 1.13,-0.96 c 0.35,-0.33 0.64,-0.71 0.89,-1.13 c 0.39,-0.25 0.74,-0.57 1.03,-0.94 c 54.41,-54.71 108.84,-109.41 163.27,-164.1 c 0.26,-0.27 0.52,-0.55 0.78,-0.83 c 0.35,-0.32 0.69,-0.66 1.02,-1 c 0.35,-0.32 0.68,-0.65 1.01,-0.99 c 0.34,-0.33 0.67,-0.66 0.99,-1.01 c 0.34,-0.33 0.67,-0.66 0.99,-1.01 c 0.35,-0.32 0.68,-0.65 1.01,-0.99 c 0.35,-0.32 0.68,-0.65 1.01,-0.99 c 0.34,-0.33 0.67,-0.66 0.99,-1.01 c 0.34,-0.33 0.67,-0.66 0.99,-1.01 c 0.35,-0.32 0.68,-0.65 1.01,-0.99 c 0.35,-0.32 0.68,-0.65 1.01,-0.99 c 0.34,-0.33 0.67,-0.66 0.99,-1.01 c 0.34,-0.33 0.67,-0.66 0.99,-1.01 c 0.35,-0.32 0.68,-0.65 1.01,-0.99 c 0.35,-0.32 0.68,-0.65 1.01,-0.99 c 0.34,-0.33 0.67,-0.66 0.99,-1.01 c 0.34,-0.33 0.67,-0.66 0.99,-1.01 c 0.35,-0.32 0.68,-0.65 1.01,-0.99 c 0.36,-0.36 0.66,-0.76 0.89,-1.22 c 0.41,-0.2 0.76,-0.48 1.04,-0.84 c 47.99,-48.18 95.94,-96.4 143.85,-144.66 c 4.86,-5 9.85,-9.86 14.95,-14.58 c 9.37,0.02 18.73,-0.06 28.08,-0.22 c -0.27,149.87 -0.36,299.76 -0.26,449.65 c 0.23,1.17 -0.16,2.01 -1.16,2.52 c -0.15,-0.56 -0.44,-1.03 -0.89,-1.4 c -19.87,-19.79 -39.71,-39.61 -59.52,-59.46 c -0.41,-0.39 -0.87,-0.69 -1.4,-0.91 c 0.05,-86.25 0.07,-172.51 0.07,-258.78 c 0.04,-0.63 -0.02,-1.25 -0.2,-1.85 c -0.72,-0.62 -1.26,-0.47 -1.62,0.44 c -97.25,96.8 -194.42,193.67 -291.54,290.61 c -0.37,0.29 -0.64,0.65 -0.83,1.08 c -0.46,0.21 -0.87,0.5 -1.22,0.87 c -0.33,0.31 -0.64,0.65 -0.9,1.03 c -0.4,0.28 -0.75,0.62 -1.05,1 c -0.37,0.3 -0.72,0.61 -1.05,0.96 c -0.35,0.32 -0.68,0.66 -1,1 c -0.33,0.31 -0.6,0.67 -0.8,1.08 c -0.47,0.26 -0.81,0.64 -1.02,1.13 c -0.45,0.18 -0.84,0.44 -1.18,0.79 c -0.34,0.32 -0.68,0.66 -1,1 c -0.36,0.36 -0.66,0.76 -0.88,1.22 c -0.44,0.2 -0.76,0.52 -0.95,0.96 c -0.44,0.2 -0.83,0.47 -1.17,0.82 c -0.34,0.32 -0.68,0.66 -1,1 c -0.33,0.31 -0.63,0.66 -0.88,1.04 c -0.4,0.27 -0.71,0.63 -0.93,1.07 c -0.44,0.23 -0.84,0.53 -1.19,0.89 c -0.34,0.32 -0.68,0.66 -1,1 c -0.35,0.34 -0.62,0.74 -0.8,1.2 c -0.48,0.19 -0.84,0.52 -1.08,0.98 c -0.42,0.2 -0.79,0.48 -1.12,0.82 c -0.34,0.32 -0.68,0.66 -1,1 c -0.36,0.35 -0.65,0.74 -0.87,1.19 c -0.42,0.19 -0.73,0.5 -0.93,0.93 c -0.45,0.23 -0.85,0.52 -1.2,0.88 c -0.34,0.32 -0.68,0.66 -1,1 c -0.35,0.33 -0.67,0.69 -0.96,1.07 c -0.4,0.31 -0.72,0.69 -0.96,1.13 c -0.41,0.2 -0.77,0.47 -1.08,0.8 c -0.34,0.32 -0.68,0.66 -1,1 c -0.36,0.35 -0.64,0.76 -0.83,1.23 c -0.47,0.19 -0.84,0.5 -1.1,0.94 c -0.4,0.22 -0.75,0.5 -1.07,0.83 c -0.34,0.32 -0.68,0.66 -1,1 c -0.35,0.33 -0.63,0.71 -0.86,1.13 c -0.35,0.18 -0.68,0.41 -0.97,0.67 c -9.29,9.28 -18.58,18.55 -27.88,27.82 c -1.52,1.4 -2.58,-1.1 -3.7,-1.83 c -0.31,-0.25 -0.65,-0.44 -1.02,-0.58 c -0.2,-0.47 -0.51,-0.86 -0.92,-1.15 c -0.26,-0.39 -0.55,-0.74 -0.88,-1.07 c -0.32,-0.34 -0.66,-0.68 -1,-1 c -0.33,-0.33 -0.7,-0.62 -1.1,-0.85 c -0.25,-0.42 -0.58,-0.76 -0.99,-1.02 c -0.26,-0.41 -0.57,-0.79 -0.91,-1.13 c -0.32,-0.34 -0.66,-0.68 -1,-1 c -0.32,-0.33 -0.68,-0.61 -1.07,-0.85 c -0.26,-0.41 -0.61,-0.71 -1.05,-0.92 c -0.23,-0.46 -0.52,-0.87 -0.88,-1.23 c -0.32,-0.34 -0.66,-0.68 -1,-1 c -0.35,-0.35 -0.73,-0.65 -1.14,-0.9 c -0.24,-0.4 -0.55,-0.72 -0.94,-0.97 c -0.27,-0.41 -0.57,-0.79 -0.92,-1.13 c -0.32,-0.34 -0.66,-0.68 -1,-1 c -0.36,-0.35 -0.76,-0.63 -1.22,-0.83 c -0.19,-0.45 -0.49,-0.81 -0.89,-1.09 c -0.26,-0.39 -0.56,-0.75 -0.89,-1.08 c -0.32,-0.34 -0.66,-0.68 -1,-1 c -0.32,-0.33 -0.67,-0.62 -1.05,-0.88 c -0.28,-0.39 -0.62,-0.69 -1.04,-0.91 c -0.25,-0.44 -0.55,-0.85 -0.91,-1.21 c -0.32,-0.34 -0.66,-0.68 -1.01,-1 c -0.35,-0.35 -0.75,-0.61 -1.22,-0.79 c -0.18,-0.45 -0.46,-0.83 -0.84,-1.14 c -99.05,-98.74 -198.08,-197.49 -297.1,-296.26 c -0.28,-0.27 -0.55,-0.53 -0.83,-0.79 c -0.32,-0.35 -0.66,-0.69 -1.01,-1.01 c -0.33,-0.34 -0.66,-0.67 -1.01,-0.99 c -0.32,-0.35 -0.65,-0.68 -0.99,-1.01 c -0.32,-0.35 -0.65,-0.68 -0.99,-1.01 c -0.33,-0.34 -0.66,-0.67 -1.01,-0.99 c -0.33,-0.34 -0.66,-0.67 -1.01,-0.99 c -0.32,-0.35 -0.65,-0.68 -0.99,-1.01 c -0.32,-0.35 -0.65,-0.68 -0.99,-1.01 c -0.33,-0.34 -0.66,-0.67 -1.01,-0.99 c -0.33,-0.34 -0.66,-0.67 -1.01,-0.99 c -0.32,-0.35 -0.65,-0.68 -0.99,-1.01 c -0.32,-0.35 -0.65,-0.68 -0.99,-1.01 c -0.33,-0.34 -0.66,-0.67 -1.01,-0.99 c -0.33,-0.34 -0.66,-0.67 -1.01,-0.99 c -0.32,-0.35 -0.65,-0.68 -0.99,-1.01 c -0.32,-0.35 -0.65,-0.68 -0.99,-1.01 c -0.33,-0.34 -0.66,-0.67 -1.01,-0.99 c -0.33,-0.34 -0.66,-0.67 -1.01,-0.99 c -0.32,-0.35 -0.65,-0.68 -0.99,-1.01 c -0.32,-0.35 -0.65,-0.68 -0.99,-1.01 c -0.33,-0.34 -0.66,-0.67 -1.01,-0.99 c -0.33,-0.34 -0.66,-0.67 -1.01,-0.99 c -0.32,-0.35 -0.65,-0.68 -0.99,-1.01 c -0.32,-0.35 -0.65,-0.68 -0.99,-1.01 c -0.33,-0.34 -0.66,-0.67 -1.01,-0.99 c -0.33,-0.34 -0.66,-0.67 -1.01,-0.99 c -0.32,-0.35 -0.65,-0.68 -0.99,-1.01 c -0.32,-0.35 -0.65,-0.68 -1,-1 c -0.32,-0.35 -0.69,-0.63 -1.12,-0.85 c -1.49,-2.19 -2.25,-1.96 -2.3,0.71 c 0.09,245.86 0.02,491.72 -0.21,737.57 c -20.83,-0.02 -41.66,-0.06 -62.49,-0.13 c -0.09,-289.68 -0.24,-579.37 -0.46,-869.04 Z"/></g>
</svg>
